<svg width="323" height="78" viewBox="0 0 323 78" fill="none" xmlns="http://www.w3.org/2000/svg">
<rect width="322.669" height="78" rx="10" fill="#4F214C"/>
<path d="M62.4318 47V44.1H65.0568V47H62.4318ZM52.2318 47C50.4485 47 48.9402 46.7667 47.7068 46.3C46.4902 45.8333 45.5652 45.1417 44.9318 44.225C44.3152 43.3083 44.0068 42.1667 44.0068 40.8C44.0068 40.4 44.0318 39.9833 44.0818 39.55C44.1318 39.1 44.1902 38.675 44.2568 38.275C44.3402 37.8583 44.4152 37.4917 44.4818 37.175C44.5485 36.8583 44.5985 36.625 44.6318 36.475L47.8818 37.1C47.8318 37.3667 47.7652 37.7083 47.6818 38.125C47.5985 38.5417 47.5235 38.9833 47.4568 39.45C47.3902 39.9 47.3568 40.3333 47.3568 40.75C47.3568 41.4 47.4568 41.9417 47.6568 42.375C47.8735 42.8083 48.1902 43.1583 48.6068 43.425C49.0235 43.675 49.5485 43.85 50.1818 43.95C50.8152 44.05 51.5568 44.1 52.4068 44.1H61.0318L59.0818 45.725V29.325H62.4318V47H52.2318ZM65.0568 47V44.1C65.1568 44.1 65.2318 44.1333 65.2818 44.2C65.3485 44.2667 65.3985 44.3667 65.4318 44.5C65.4818 44.6333 65.5152 44.7917 65.5318 44.975C65.5485 45.1417 65.5568 45.3333 65.5568 45.55C65.5568 45.7667 65.5485 45.9667 65.5318 46.15C65.5152 46.3333 65.4818 46.4917 65.4318 46.625C65.3985 46.7417 65.3485 46.8333 65.2818 46.9C65.2318 46.9667 65.1568 47 65.0568 47ZM51.7068 37.575C51.3902 37.1917 51.1485 36.825 50.9818 36.475C50.8152 36.125 50.7318 35.75 50.7318 35.35C50.7318 34.7833 50.8818 34.275 51.1818 33.825C51.4818 33.3583 51.8735 33 52.3568 32.75C52.8402 32.4833 53.3735 32.35 53.9568 32.35C54.2735 32.35 54.5985 32.3917 54.9318 32.475C55.2652 32.5583 55.5485 32.6833 55.7818 32.85L54.9318 34.375C54.7818 34.2917 54.6318 34.2417 54.4818 34.225C54.3485 34.1917 54.2068 34.175 54.0568 34.175C53.6568 34.175 53.3485 34.2833 53.1318 34.5C52.9152 34.7 52.8068 34.975 52.8068 35.325C52.8068 35.525 52.8485 35.7167 52.9318 35.9C53.0152 36.0833 53.1402 36.2833 53.3068 36.5L51.7068 37.575ZM50.1818 37.775V35.95H56.2318V37.775H50.1818ZM65.0527 47V44.1H70.9777L69.0277 45.725V34.45H72.3527V47H65.0527ZM65.0527 47C64.9527 47 64.8777 46.9667 64.8277 46.9C64.7611 46.8333 64.7111 46.7417 64.6777 46.625C64.6277 46.4917 64.5944 46.3333 64.5777 46.15C64.5611 45.9667 64.5527 45.7667 64.5527 45.55C64.5527 45.25 64.5694 45 64.6027 44.8C64.6361 44.5833 64.6944 44.4167 64.7777 44.3C64.8444 44.1667 64.9361 44.1 65.0527 44.1V47ZM66.8277 32.15V29.3H70.0527V32.15H66.8277ZM71.3777 32.15V29.3H74.6027V32.15H71.3777ZM79.9836 47V44.1H83.2086V47H79.9836ZM75.1336 53.2C74.9169 53.2 74.6836 53.1917 74.4336 53.175C74.1836 53.1583 73.9253 53.1333 73.6586 53.1L73.7836 50.25C74.0503 50.2667 74.3003 50.2833 74.5336 50.3C74.7836 50.3167 74.9669 50.325 75.0836 50.325C75.7336 50.325 76.2503 50.0667 76.6336 49.55C77.0336 49.0333 77.2336 48.3083 77.2336 47.375V34.45H80.5836V47.375C80.5836 48.5083 80.3503 49.5167 79.8836 50.4C79.4336 51.2833 78.8003 51.9667 77.9836 52.45C77.1669 52.95 76.2169 53.2 75.1336 53.2ZM83.2086 47V44.1C83.3086 44.1 83.3836 44.1333 83.4336 44.2C83.5003 44.2667 83.5503 44.3667 83.5836 44.5C83.6336 44.6333 83.6669 44.7917 83.6836 44.975C83.7003 45.1417 83.7086 45.3333 83.7086 45.55C83.7086 45.7667 83.7003 45.9667 83.6836 46.15C83.6669 46.3333 83.6336 46.4917 83.5836 46.625C83.5503 46.7417 83.5003 46.8333 83.4336 46.9C83.3836 46.9667 83.3086 47 83.2086 47ZM98.0168 47V44.1H100.642V47H98.0168ZM83.2168 47C83.1168 47 83.0418 46.9667 82.9918 46.9C82.9251 46.8333 82.8751 46.7417 82.8418 46.625C82.7918 46.4917 82.7585 46.3333 82.7418 46.15C82.7251 45.9667 82.7168 45.7667 82.7168 45.55C82.7168 45.25 82.7335 45 82.7668 44.8C82.8001 44.5833 82.8585 44.4167 82.9418 44.3C83.0085 44.1667 83.1001 44.1 83.2168 44.1V47ZM83.2168 47V44.1H95.7668L94.6668 45V41.6C94.6668 40.7333 94.5751 40.0417 94.3918 39.525C94.2085 39.0083 93.9251 38.6333 93.5418 38.4C93.1751 38.1667 92.7085 38.05 92.1418 38.05H86.6668L84.5918 35.05L85.8668 32.65C86.0168 32.3667 86.1835 32.0583 86.3668 31.725C86.5501 31.3917 86.7918 30.9917 87.0918 30.525C87.3918 30.0583 87.7751 29.475 88.2418 28.775L91.0418 30.35C90.6085 31 90.2585 31.5417 89.9918 31.975C89.7251 32.3917 89.5001 32.7583 89.3168 33.075C89.1335 33.3917 88.9668 33.7083 88.8168 34.025L87.8168 35.9L87.3168 35.15H92.1418C93.2085 35.15 94.1168 35.325 94.8668 35.675C95.6168 36.025 96.2168 36.5083 96.6668 37.125C97.1335 37.7417 97.4751 38.4333 97.6918 39.2C97.9085 39.9667 98.0168 40.7667 98.0168 41.6V47H83.2168ZM100.642 47V44.1C100.742 44.1 100.825 44.1333 100.892 44.2C100.958 44.2667 101.008 44.3667 101.042 44.5C101.075 44.6333 101.1 44.7917 101.117 44.975C101.133 45.1417 101.142 45.3333 101.142 45.55C101.142 45.7667 101.133 45.9667 101.117 46.15C101.1 46.3333 101.075 46.4917 101.042 46.625C101.008 46.7417 100.958 46.8333 100.892 46.9C100.825 46.9667 100.742 47 100.642 47ZM100.648 47V44.1H112.323L111.298 44.975V36.625L112.148 37.35H108.998C108.265 37.35 107.69 37.4417 107.273 37.625C106.857 37.8083 106.565 38.15 106.398 38.65C106.232 39.1333 106.148 39.825 106.148 40.725C106.148 41.7083 106.232 42.4417 106.398 42.925C106.565 43.3917 106.857 43.7083 107.273 43.875C107.69 44.025 108.265 44.1 108.998 44.1V46.7C107.582 46.7 106.415 46.5 105.498 46.1C104.582 45.7 103.898 45.0667 103.448 44.2C103.015 43.3167 102.798 42.1583 102.798 40.725C102.798 39.3583 103.015 38.2083 103.448 37.275C103.898 36.3417 104.582 35.6417 105.498 35.175C106.415 34.6917 107.582 34.45 108.998 34.45H114.648V47H100.648ZM100.648 47C100.548 47 100.473 46.9667 100.423 46.9C100.357 46.8333 100.307 46.7417 100.273 46.625C100.223 46.4917 100.19 46.3333 100.173 46.15C100.157 45.9667 100.148 45.7667 100.148 45.55C100.148 45.25 100.165 45 100.198 44.8C100.232 44.5833 100.29 44.4167 100.373 44.3C100.44 44.1667 100.532 44.1 100.648 44.1V47ZM107.673 32.15V29.3H111.023V32.15H107.673ZM130.39 53.2C128.94 53.2 127.64 52.9333 126.49 52.4C125.357 51.8833 124.465 51.1583 123.815 50.225C123.165 49.2917 122.84 48.2333 122.84 47.05C122.84 46.7167 122.865 46.275 122.915 45.725C122.965 45.175 123.032 44.5583 123.115 43.875C123.215 43.1917 123.315 42.5 123.415 41.8C123.532 41.0833 123.64 40.3917 123.74 39.725L127.04 40.175C126.857 41.2917 126.698 42.3167 126.565 43.25C126.448 44.1667 126.357 44.95 126.29 45.6C126.223 46.25 126.19 46.725 126.19 47.025C126.19 47.6917 126.357 48.2667 126.69 48.75C127.023 49.2333 127.498 49.6083 128.115 49.875C128.748 50.1583 129.507 50.3 130.39 50.3C131.307 50.3 132.048 50.1667 132.615 49.9C133.182 49.6333 133.59 49.2667 133.84 48.8C134.107 48.3333 134.24 47.8083 134.24 47.225V34.45H137.59V47.225C137.59 48.425 137.273 49.475 136.64 50.375C136.023 51.275 135.173 51.9667 134.09 52.45C133.007 52.95 131.773 53.2 130.39 53.2ZM137.54 47L137.59 44.1H149.99L147.165 46.55V41.3C147.165 40.35 147.032 39.5917 146.765 39.025C146.515 38.4417 146.157 38.0167 145.69 37.75C145.223 37.4833 144.657 37.35 143.99 37.35C143.273 37.35 142.59 37.4917 141.94 37.775C141.307 38.0583 140.715 38.425 140.165 38.875C139.615 39.325 139.107 39.8083 138.64 40.325C138.173 40.8417 137.757 41.3417 137.39 41.825C137.023 42.2917 136.707 42.6917 136.44 43.025L135.665 40.6C136.315 39.8167 136.898 39.1 137.415 38.45C137.948 37.8 138.448 37.225 138.915 36.725C139.398 36.225 139.898 35.8083 140.415 35.475C140.932 35.1417 141.507 34.8917 142.14 34.725C142.773 34.5417 143.507 34.45 144.34 34.45C145.44 34.45 146.382 34.6417 147.165 35.025C147.948 35.3917 148.582 35.9 149.065 36.55C149.565 37.2 149.923 37.9333 150.14 38.75C150.373 39.5667 150.49 40.4167 150.49 41.3V47H137.54ZM140.99 32.175V29.325H144.34V32.175H140.99ZM158.035 47V44.1H161.26V47H158.035ZM153.185 53.2C152.969 53.2 152.735 53.1917 152.485 53.175C152.235 53.1583 151.977 53.1333 151.71 53.1L151.835 50.25C152.102 50.2667 152.352 50.2833 152.585 50.3C152.835 50.3167 153.019 50.325 153.135 50.325C153.785 50.325 154.302 50.0667 154.685 49.55C155.085 49.0333 155.285 48.3083 155.285 47.375V34.45H158.635V47.375C158.635 48.5083 158.402 49.5167 157.935 50.4C157.485 51.2833 156.852 51.9667 156.035 52.45C155.219 52.95 154.269 53.2 153.185 53.2ZM161.26 47V44.1C161.36 44.1 161.435 44.1333 161.485 44.2C161.552 44.2667 161.602 44.3667 161.635 44.5C161.685 44.6333 161.719 44.7917 161.735 44.975C161.752 45.1417 161.76 45.3333 161.76 45.55C161.76 45.7667 161.752 45.9667 161.735 46.15C161.719 46.3333 161.685 46.4917 161.635 46.625C161.602 46.7417 161.552 46.8333 161.485 46.9C161.435 46.9667 161.36 47 161.26 47ZM161.269 47V44.1H166.569C167.285 44.1 167.977 43.9667 168.644 43.7C169.31 43.4167 169.919 43.05 170.469 42.6C171.035 42.1333 171.527 41.625 171.944 41.075C172.377 40.5083 172.71 39.9333 172.944 39.35C173.194 38.7667 173.319 38.2167 173.319 37.7V36.1L174.919 38.75C174.052 38.2833 173.169 37.9333 172.269 37.7C171.369 37.4667 170.51 37.35 169.694 37.35C168.894 37.35 168.035 37.4667 167.119 37.7C166.219 37.9333 165.344 38.2833 164.494 38.75L166.094 36.1V37.7C166.094 38.2167 166.21 38.7667 166.444 39.35C166.694 39.9333 167.027 40.5083 167.444 41.075C167.86 41.625 168.352 42.1333 168.919 42.6C169.485 43.05 170.102 43.4167 170.769 43.7C171.435 43.9667 172.119 44.1 172.819 44.1H177.969V47H173.869C172.569 47 171.352 46.7917 170.219 46.375C169.085 45.9583 168.06 45.4083 167.144 44.725C166.227 44.025 165.435 43.2667 164.769 42.45C164.119 41.6167 163.619 40.7917 163.269 39.975C162.919 39.1417 162.744 38.3833 162.744 37.7V36.275C163.46 35.875 164.219 35.5417 165.019 35.275C165.835 35.0083 166.644 34.8083 167.444 34.675C168.26 34.525 169.01 34.45 169.694 34.45C170.394 34.45 171.144 34.525 171.944 34.675C172.744 34.8083 173.544 35.0083 174.344 35.275C175.16 35.5417 175.927 35.875 176.644 36.275V37.7C176.644 38.3833 176.469 39.1417 176.119 39.975C175.769 40.7917 175.26 41.6167 174.594 42.45C173.944 43.2667 173.16 44.025 172.244 44.725C171.327 45.4083 170.302 45.9583 169.169 46.375C168.035 46.7917 166.819 47 165.519 47H161.269ZM161.269 47C161.169 47 161.094 46.9667 161.044 46.9C160.977 46.8333 160.927 46.7417 160.894 46.625C160.844 46.4917 160.81 46.3333 160.794 46.15C160.777 45.9667 160.769 45.7667 160.769 45.55C160.769 45.25 160.785 45 160.819 44.8C160.852 44.5833 160.91 44.4167 160.994 44.3C161.06 44.1667 161.152 44.1 161.269 44.1V47ZM177.969 47V44.1C178.069 44.1 178.152 44.1333 178.219 44.2C178.285 44.2667 178.335 44.3667 178.369 44.5C178.402 44.6333 178.427 44.7917 178.444 44.975C178.46 45.1417 178.469 45.3333 178.469 45.55C178.469 45.7667 178.46 45.9667 178.444 46.15C178.427 46.3333 178.402 46.4917 178.369 46.625C178.335 46.7417 178.285 46.8333 178.219 46.9C178.152 46.9667 178.069 47 177.969 47ZM180.793 47V29.325H184.143V47H180.793ZM177.968 47V44.1H180.793V47H177.968ZM177.968 47C177.868 47 177.793 46.9667 177.743 46.9C177.676 46.8333 177.626 46.7417 177.593 46.625C177.543 46.4917 177.509 46.3333 177.493 46.15C177.476 45.9667 177.468 45.7667 177.468 45.55C177.468 45.25 177.484 45 177.518 44.8C177.551 44.5833 177.609 44.4167 177.693 44.3C177.759 44.1667 177.851 44.1 177.968 44.1V47ZM196.922 47V44.1H199.772V47H196.922ZM193.597 47V29.325H196.922V47H193.597ZM199.772 47V44.1C199.872 44.1 199.947 44.1333 199.997 44.2C200.063 44.2667 200.113 44.3667 200.147 44.5C200.197 44.6333 200.23 44.7917 200.247 44.975C200.263 45.1417 200.272 45.3333 200.272 45.55C200.272 45.7667 200.263 45.9667 200.247 46.15C200.23 46.3333 200.197 46.4917 200.147 46.625C200.113 46.7417 200.063 46.8333 199.997 46.9C199.947 46.9667 199.872 47 199.772 47ZM205.745 47V44.1H208.37V47H205.745ZM199.77 47C199.67 47 199.595 46.9667 199.545 46.9C199.478 46.8333 199.428 46.7417 199.395 46.625C199.345 46.4917 199.311 46.3333 199.295 46.15C199.278 45.9667 199.27 45.7667 199.27 45.55C199.27 45.25 199.286 45 199.32 44.8C199.353 44.5833 199.411 44.4167 199.495 44.3C199.561 44.1667 199.653 44.1 199.77 44.1V47ZM199.77 47V44.1H204.345L202.395 45.725V34.45H205.745V47H199.77ZM208.37 47V44.1C208.47 44.1 208.553 44.1333 208.62 44.2C208.686 44.2667 208.736 44.3667 208.77 44.5C208.803 44.6333 208.828 44.7917 208.845 44.975C208.861 45.1417 208.87 45.3333 208.87 45.55C208.87 45.7667 208.861 45.9667 208.845 46.15C208.828 46.3333 208.803 46.4917 208.77 46.625C208.736 46.7417 208.686 46.8333 208.62 46.9C208.553 46.9667 208.47 47 208.37 47ZM202.395 32.15V29.3H205.745V32.15H202.395ZM208.363 47V44.1H212.938L210.988 45.725V34.45H214.338V47H208.363ZM208.363 47C208.263 47 208.188 46.9667 208.138 46.9C208.072 46.8333 208.022 46.7417 207.988 46.625C207.938 46.4917 207.905 46.3333 207.888 46.15C207.872 45.9667 207.863 45.7667 207.863 45.55C207.863 45.25 207.88 45 207.913 44.8C207.947 44.5833 208.005 44.4167 208.088 44.3C208.155 44.1667 208.247 44.1 208.363 44.1V47ZM210.988 52.325V49.475H214.338V52.325H210.988ZM237.346 47V44.1H239.971V47H237.346ZM230.146 53.2C228.696 53.2 227.396 52.9333 226.246 52.4C225.112 51.8833 224.221 51.1583 223.571 50.225C222.921 49.2917 222.596 48.2333 222.596 47.05C222.596 46.7167 222.621 46.275 222.671 45.725C222.721 45.175 222.787 44.5583 222.871 43.875C222.971 43.1917 223.071 42.5 223.171 41.8C223.287 41.0833 223.396 40.3917 223.496 39.725L226.796 40.175C226.612 41.2917 226.454 42.3167 226.321 43.25C226.204 44.1667 226.112 44.95 226.046 45.6C225.979 46.25 225.946 46.725 225.946 47.025C225.946 47.6917 226.112 48.2667 226.446 48.75C226.779 49.2333 227.254 49.6083 227.871 49.875C228.504 50.1583 229.262 50.3 230.146 50.3C231.062 50.3 231.804 50.1667 232.371 49.9C232.937 49.6333 233.346 49.2667 233.596 48.8C233.862 48.3333 233.996 47.8083 233.996 47.225V29.325H237.346V47.225C237.346 48.425 237.029 49.475 236.396 50.375C235.779 51.275 234.929 51.9667 233.846 52.45C232.762 52.95 231.529 53.2 230.146 53.2ZM239.971 47V44.1C240.071 44.1 240.146 44.1333 240.196 44.2C240.262 44.2667 240.312 44.3667 240.346 44.5C240.396 44.6333 240.429 44.7917 240.446 44.975C240.462 45.1417 240.471 45.3333 240.471 45.55C240.471 45.7667 240.462 45.9667 240.446 46.15C240.429 46.3333 240.396 46.4917 240.346 46.625C240.312 46.7417 240.262 46.8333 240.196 46.9C240.146 46.9667 240.071 47 239.971 47ZM259.404 47V44.1H262.029V47H259.404ZM239.979 47C239.879 47 239.804 46.9667 239.754 46.9C239.688 46.8333 239.638 46.7417 239.604 46.625C239.554 46.4917 239.521 46.3333 239.504 46.15C239.488 45.9667 239.479 45.7667 239.479 45.55C239.479 45.25 239.496 45 239.529 44.8C239.563 44.5833 239.621 44.4167 239.704 44.3C239.771 44.1667 239.863 44.1 239.979 44.1V47ZM239.979 47V44.1H258.879L256.054 46.55V41.3C256.054 40.35 255.929 39.5917 255.679 39.025C255.429 38.4417 255.063 38.0167 254.579 37.75C254.113 37.4833 253.546 37.35 252.879 37.35C252.163 37.35 251.479 37.4917 250.829 37.775C250.196 38.0583 249.604 38.425 249.054 38.875C248.504 39.325 247.996 39.8083 247.529 40.325C247.063 40.8417 246.646 41.3417 246.279 41.825C245.913 42.2917 245.596 42.6917 245.329 43.025L244.579 40.6C245.229 39.8167 245.813 39.1 246.329 38.45C246.846 37.8 247.338 37.225 247.804 36.725C248.288 36.225 248.788 35.8083 249.304 35.475C249.838 35.1417 250.413 34.8917 251.029 34.725C251.663 34.5417 252.396 34.45 253.229 34.45C254.346 34.45 255.296 34.6417 256.079 35.025C256.863 35.3917 257.496 35.9 257.979 36.55C258.479 37.2 258.838 37.9333 259.054 38.75C259.288 39.5667 259.404 40.4167 259.404 41.3V47H239.979ZM243.129 44.1V34.45H246.479V44.1H243.129ZM262.029 47V44.1C262.129 44.1 262.204 44.1333 262.254 44.2C262.321 44.2667 262.371 44.3667 262.404 44.5C262.454 44.6333 262.488 44.7917 262.504 44.975C262.521 45.1417 262.529 45.3333 262.529 45.55C262.529 45.7667 262.521 45.9667 262.504 46.15C262.488 46.3333 262.454 46.4917 262.404 46.625C262.371 46.7417 262.321 46.8333 262.254 46.9C262.204 46.9667 262.129 47 262.029 47ZM262.025 47V44.1H267.95L266 45.725V34.45H269.325V47H262.025ZM262.025 47C261.925 47 261.85 46.9667 261.8 46.9C261.734 46.8333 261.684 46.7417 261.65 46.625C261.6 46.4917 261.567 46.3333 261.55 46.15C261.534 45.9667 261.525 45.7667 261.525 45.55C261.525 45.25 261.542 45 261.575 44.8C261.609 44.5833 261.667 44.4167 261.75 44.3C261.817 44.1667 261.909 44.1 262.025 44.1V47ZM263.8 32.15V29.3H267.025V32.15H263.8ZM268.35 32.15V29.3H271.575V32.15H268.35ZM273.406 47V29.325H276.731V47H273.406Z" fill="white"/>
</svg>
