<svg width="289" height="380" viewBox="0 0 289 380" fill="none" xmlns="http://www.w3.org/2000/svg">
<rect width="74.2719" height="75.086" transform="matrix(0.742234 -0.67014 0.742234 0.67014 145.414 148.757)" fill="#36163D"/>
<rect width="74.2719" height="75.086" transform="matrix(0.742234 -0.67014 0.742234 0.67014 145.407 248.683)" fill="#36163D"/>
<path d="M199.835 198.673L256.346 149.294L256.346 249.238L199.835 198.673Z" fill="#36163D"/>
<rect width="74.3027" height="75.055" transform="matrix(-0.728772 0.684756 -0.755415 -0.655247 145.861 149.085)" fill="#36163D"/>
<rect width="74.3027" height="75.055" transform="matrix(-0.728772 0.684756 -0.755415 -0.655247 143.928 49.1797)" fill="#36163D"/>
<path d="M90.4825 100.282L34.9409 150.795L33 50.8715L90.4825 100.282Z" fill="#36163D"/>
<path d="M75.9018 371C73.6191 371 71.6884 370.701 70.1098 370.104C68.5524 369.507 67.3684 368.621 66.5578 367.448C65.7684 366.275 65.3738 364.813 65.3738 363.064C65.3738 362.552 65.4058 362.019 65.4698 361.464C65.5338 360.888 65.6084 360.344 65.6938 359.832C65.8004 359.299 65.8964 358.829 65.9818 358.424C66.0671 358.019 66.1311 357.72 66.1738 357.528L70.3338 358.328C70.2698 358.669 70.1844 359.107 70.0778 359.64C69.9711 360.173 69.8751 360.739 69.7898 361.336C69.7044 361.912 69.6618 362.467 69.6618 363C69.6618 363.832 69.7898 364.525 70.0458 365.08C70.3231 365.635 70.7284 366.083 71.2618 366.424C71.7951 366.744 72.4671 366.968 73.2778 367.096C74.0884 367.224 75.0378 367.288 76.1258 367.288H84.6698V354.936H88.9578V371H75.9018ZM72.2218 354.264V350.616H76.3498V354.264H72.2218ZM78.0458 354.264V350.616H82.1737V354.264H78.0458ZM93.7863 371V348.376H98.0423V371H93.7863ZM102.154 378.936C101.876 378.936 101.578 378.925 101.258 378.904C100.938 378.883 100.607 378.851 100.265 378.808L100.425 375.16C100.767 375.181 101.087 375.203 101.386 375.224C101.706 375.245 101.94 375.256 102.09 375.256C102.922 375.256 103.583 374.925 104.074 374.264C104.586 373.603 104.842 372.675 104.842 371.48V354.936H109.13V371.48C109.13 372.931 108.831 374.221 108.234 375.352C107.658 376.483 106.847 377.357 105.802 377.976C104.756 378.616 103.54 378.936 102.154 378.936ZM118.417 371V367.288H122.065V371H118.417ZM114.161 371V348.376H118.417V371H114.161ZM122.065 371V367.288C122.193 367.288 122.289 367.331 122.353 367.416C122.439 367.501 122.503 367.629 122.545 367.8C122.609 367.971 122.652 368.173 122.673 368.408C122.695 368.621 122.705 368.867 122.705 369.144C122.705 369.421 122.695 369.677 122.673 369.912C122.652 370.147 122.609 370.349 122.545 370.52C122.503 370.669 122.439 370.787 122.353 370.872C122.289 370.957 122.193 371 122.065 371ZM148.911 371V367.288H152.303V371H148.911ZM122.062 371C121.934 371 121.838 370.957 121.774 370.872C121.689 370.787 121.625 370.669 121.582 370.52C121.518 370.349 121.476 370.147 121.454 369.912C121.433 369.677 121.422 369.421 121.422 369.144C121.422 368.76 121.444 368.44 121.486 368.184C121.529 367.907 121.604 367.693 121.71 367.544C121.796 367.373 121.913 367.288 122.062 367.288V371ZM140.878 371C140.004 371 139.129 370.84 138.255 370.52C137.401 370.179 136.612 369.677 135.887 369.016L138.51 366.296C138.937 366.637 139.332 366.893 139.694 367.064C140.079 367.213 140.473 367.288 140.878 367.288H146.863L144.655 369.304V362.2C144.655 361.859 144.612 361.347 144.527 360.664C144.463 359.96 144.356 359.171 144.207 358.296C144.079 357.4 143.919 356.493 143.727 355.576L147.951 354.936C148.1 355.704 148.239 356.568 148.367 357.528C148.516 358.467 148.644 359.363 148.751 360.216C148.857 361.048 148.911 361.709 148.911 362.2V371H140.878ZM122.062 371V367.288H126.735L125.775 368.28V358.2H130.062V371H122.062ZM130.062 371V367.288H132.655C133.337 367.288 133.86 367.192 134.223 367C134.585 366.787 134.831 366.371 134.959 365.752C135.108 365.112 135.183 364.163 135.183 362.904V356.6H139.471V362.904C139.471 364.803 139.225 366.349 138.735 367.544C138.265 368.739 137.529 369.613 136.527 370.168C135.524 370.723 134.233 371 132.655 371H130.062ZM152.303 371V367.288C152.409 367.288 152.505 367.331 152.591 367.416C152.676 367.501 152.74 367.629 152.783 367.8C152.825 367.971 152.857 368.173 152.879 368.408C152.921 368.621 152.943 368.867 152.943 369.144C152.943 369.421 152.921 369.677 152.879 369.912C152.857 370.147 152.825 370.349 152.783 370.52C152.74 370.669 152.676 370.787 152.591 370.872C152.505 370.957 152.409 371 152.303 371ZM135.503 347.096V343.896H139.215V347.096H135.503ZM132.399 351.992V348.344H136.527V351.992H132.399ZM138.222 351.992V348.344H142.351V351.992H138.222ZM161.657 371V367.288H165.657V371H161.657ZM165.657 371V367.288C165.763 367.288 165.859 367.331 165.945 367.416C166.03 367.501 166.094 367.629 166.137 367.8C166.179 367.971 166.211 368.173 166.233 368.408C166.275 368.621 166.297 368.867 166.297 369.144C166.297 369.421 166.275 369.677 166.233 369.912C166.211 370.147 166.179 370.349 166.137 370.52C166.094 370.669 166.03 370.787 165.945 370.872C165.881 370.957 165.785 371 165.657 371ZM152.312 371C152.184 371 152.088 370.957 152.024 370.872C151.939 370.787 151.875 370.669 151.832 370.52C151.768 370.349 151.726 370.147 151.704 369.912C151.683 369.677 151.672 369.421 151.672 369.144C151.672 368.76 151.694 368.44 151.736 368.184C151.779 367.907 151.854 367.693 151.96 367.544C152.046 367.373 152.163 367.288 152.312 367.288V371ZM152.312 371V367.288H159.897L157.401 369.368V354.936H161.657V371H152.312ZM154.585 351.992V348.344H158.713V351.992H154.585ZM160.409 351.992V348.344H164.537V351.992H160.409ZM184.472 371C183.598 371 182.723 370.84 181.848 370.52C180.995 370.179 180.206 369.677 179.48 369.016L182.104 366.296C182.531 366.637 182.926 366.893 183.288 367.064C183.672 367.213 184.067 367.288 184.472 367.288H190.456L188.248 369.304V362.2C188.248 361.859 188.206 361.347 188.12 360.664C188.056 359.96 187.95 359.171 187.8 358.296C187.672 357.4 187.512 356.493 187.32 355.576L191.544 354.936C191.694 355.704 191.832 356.568 191.96 357.528C192.11 358.467 192.238 359.363 192.344 360.216C192.451 361.048 192.504 361.709 192.504 362.2V371H184.472ZM165.656 371V367.288H170.328L169.368 368.28V358.2H173.656V371H165.656ZM173.656 371V367.288H176.248C176.931 367.288 177.454 367.192 177.816 367C178.179 366.787 178.424 366.371 178.552 365.752C178.702 365.112 178.776 364.163 178.776 362.904V356.6H183.064V362.904C183.064 364.803 182.819 366.349 182.328 367.544C181.859 368.739 181.123 369.613 180.12 370.168C179.118 370.723 177.827 371 176.248 371H173.656ZM165.656 371C165.528 371 165.432 370.957 165.368 370.872C165.283 370.787 165.219 370.669 165.176 370.52C165.112 370.349 165.07 370.147 165.048 369.912C165.027 369.677 165.016 369.421 165.016 369.144C165.016 368.76 165.038 368.44 165.08 368.184C165.123 367.907 165.198 367.693 165.304 367.544C165.39 367.373 165.507 367.288 165.656 367.288V371ZM196.03 371V367.288H212.286L210.238 369.4V348.376H214.526V371H196.03ZM200.478 367.288V352.856H204.734V367.288H200.478ZM219.755 371V348.376H224.011V371H219.755Z" fill="#36163D"/>
</svg>
