<svg width="24" height="24" viewBox="0 0 24 24" fill="none" xmlns="http://www.w3.org/2000/svg">
<path d="M17.3257 20H6.67433C5.20246 20 4 18.7975 4 17.3257V6.67433C4 5.20246 5.20246 4 6.67433 4H17.3257C18.7975 4 20 5.20246 20 6.67433V17.3257C20 18.8041 18.8041 20 17.3257 20Z" stroke="#953F55" stroke-width="1.2"/>
<path d="M9.09931 14.9076C9.87467 15.6829 10.9063 16.11 12.0036 16.11C13.101 16.11 14.126 15.6829 14.9079 14.9076C15.6833 14.1322 16.1104 13.1006 16.1104 12.0033C16.1104 10.9059 15.6833 9.87431 14.9079 9.09895C14.1326 8.32359 13.101 7.89648 12.0036 7.89648C10.9063 7.89648 9.87467 8.32359 9.09931 9.09895C8.32395 9.87431 7.89685 10.9059 7.89685 12.0033C7.89685 13.1006 8.32395 14.1322 9.09931 14.9076Z" stroke="#953F55" stroke-width="1.2"/>
<path d="M16.9103 7.76064C17.3458 7.76064 17.6989 7.4076 17.6989 6.97211C17.6989 6.53663 17.3458 6.18359 16.9103 6.18359C16.4749 6.18359 16.1218 6.53663 16.1218 6.97211C16.1218 7.4076 16.4749 7.76064 16.9103 7.76064Z" stroke="#953F55" stroke-width="1.2"/>
</svg>
