<svg width="24" height="24" viewBox="0 0 24 24" fill="none" xmlns="http://www.w3.org/2000/svg">
<path d="M7.61294 9.26172H4.26965V19.9233H7.61294V9.26172Z" stroke="#953F55" stroke-width="0.8"/>
<path d="M16.6567 9.03072C16.5335 9.01532 16.4025 9.00761 16.2716 8.99991C14.3996 8.92288 13.3443 10.0322 12.9745 10.5098C12.8744 10.6407 12.8281 10.7178 12.8281 10.7178V9.29264H9.63123V19.9542H12.8281H12.9745C12.9745 18.868 12.9745 17.7895 12.9745 16.7033C12.9745 16.1179 12.9745 15.5324 12.9745 14.947C12.9745 14.2228 12.9206 13.4525 13.2827 12.79C13.5908 12.2353 14.1454 11.958 14.7694 11.958C16.6182 11.958 16.6567 13.6297 16.6567 13.7837C16.6567 13.7914 16.6567 13.7991 16.6567 13.7991V20.0004H20V13.0442C20 10.6639 18.7906 9.26183 16.6567 9.03072Z" stroke="#953F55" stroke-width="0.8"/>
<path d="M5.94126 7.88253C7.01339 7.88253 7.88253 7.01339 7.88253 5.94126C7.88253 4.86913 7.01339 4 5.94126 4C4.86913 4 4 4.86913 4 5.94126C4 7.01339 4.86913 7.88253 5.94126 7.88253Z" stroke="#953F55" stroke-width="0.8"/>
</svg>
