<svg width="106" height="51" viewBox="0 0 106 51" fill="none" xmlns="http://www.w3.org/2000/svg">
<path d="M44.3432 19.9377C44.3489 21.0153 44.4846 21.6794 44.7522 21.9282C45.0198 22.177 45.8473 22.3014 47.2344 22.3014C48.6216 22.3014 49.4151 22.1858 49.777 21.9562C50.1389 21.7214 50.3198 21.1344 50.3198 20.1935V19.9236C50.3198 19.6065 50.2407 19.2911 50.0824 18.9775C49.9297 18.6638 49.532 18.4851 48.8931 18.4378L48.2466 18.3887L45.6456 18.2222C44.7937 18.1662 44.1472 17.9524 43.7061 17.5792C43.2708 17.2007 43.0521 16.5244 43.0521 15.5484C43.0521 14.4795 43.2934 13.7103 43.774 13.2407C44.2603 12.7658 45.4609 12.5293 47.3796 12.5293C48.8365 12.5293 49.8675 12.7045 50.4725 13.055C51.0775 13.4001 51.3791 14.059 51.3791 15.0315V15.5151H50.0861C50.0861 14.653 49.9278 14.1186 49.6112 13.9118C49.2983 13.6998 48.5387 13.5946 47.3287 13.5946C46.0452 13.5946 45.2272 13.698 44.8766 13.9065C44.5241 14.1133 44.3489 14.5882 44.3489 15.3293C44.3489 16.0705 44.4695 16.5892 44.7126 16.7872C44.9558 16.9799 45.3214 17.0903 45.8133 17.1184L49.172 17.3251C50.8023 17.432 51.6166 18.3011 51.6166 19.9377V20.2285C51.6166 21.4218 51.3659 22.2436 50.8664 22.6957C50.3651 23.1425 49.2116 23.3668 47.4022 23.3668C45.4043 23.3668 44.1811 23.1267 43.7306 22.6483C43.2802 22.1647 43.054 21.5077 43.054 20.6789V19.9394H44.347L44.3432 19.9377Z" fill="#4F214C"/>
<path d="M54.1101 19.572C54.1101 20.8389 54.2157 21.6309 54.4305 21.9498C54.6492 22.2669 55.3126 22.4264 56.4227 22.4264C57.5329 22.4264 58.119 22.2582 58.3471 21.9218C58.5808 21.5853 58.6958 20.7951 58.6958 19.551C58.6958 18.3069 58.5865 17.5132 58.3697 17.1803C58.1511 16.8438 57.6384 16.6756 56.8317 16.6756H56.2361C55.1411 16.6756 54.5116 16.8929 54.3476 17.3257C54.1893 17.7532 54.1101 18.5032 54.1101 19.572ZM52.8699 19.551C52.8699 17.9986 53.0886 16.9805 53.5239 16.4969C53.965 16.0133 54.9338 15.7715 56.4303 15.7715C57.9268 15.7715 58.9408 16.0361 59.3366 16.5652C59.7381 17.0909 59.9379 18.0949 59.9379 19.5773C59.9379 21.1525 59.7079 22.1723 59.2461 22.6384C58.79 23.0993 57.8514 23.3288 56.4284 23.3288C54.8037 23.3288 53.8029 23.0502 53.4259 22.493C53.0546 21.9305 52.868 20.9493 52.868 19.5493" fill="#4F214C"/>
<path d="M62.9931 12.6387H61.7887V23.2518H62.9931V12.6387Z" fill="#4F214C"/>
<path d="M65.008 15.8457H66.2124V20.7028C66.2124 21.3564 66.3236 21.8085 66.5479 22.0573C66.7759 22.3009 67.2151 22.4235 67.8634 22.4235C68.7851 22.4235 69.4316 22.2868 69.8029 22.0153C70.1742 21.7437 70.3608 21.2215 70.3608 20.447V15.8457H71.5651V23.2541H70.3381V22.2238C70.1742 22.569 69.8971 22.8405 69.5051 23.0385C69.113 23.2313 68.574 23.3294 67.8842 23.3294C66.9324 23.3294 66.2143 23.1472 65.728 22.7827C65.2474 22.4183 65.0061 21.7051 65.0061 20.6415V15.8457H65.008Z" fill="#4F214C"/>
<path d="M72.5886 15.8459H73.6592V14.0762H74.8636V15.8459H77.9565V16.7518H74.8636V21.4302C74.8636 21.8227 74.9371 22.0873 75.086 22.224C75.2386 22.3571 75.5251 22.4237 75.9416 22.4237C76.4072 22.4237 76.7276 22.3484 76.901 22.1959C77.0801 22.04 77.1686 21.7404 77.1686 21.2971V20.5646H78.3127V21.1586C78.3127 22.606 77.5362 23.3279 75.9869 23.3279C75.0106 23.3279 74.3792 23.1719 74.0908 22.8583C73.8043 22.5411 73.6592 21.9787 73.6592 21.1726V16.7501H72.5886V15.8442V15.8459Z" fill="#4F214C"/>
<path d="M79.2946 15.8456H80.4989V23.2539H79.2946V15.8456ZM79.2946 12.625H80.4989V13.8551H79.2946V12.625Z" fill="#4F214C"/>
<path d="M83.5598 19.5701C83.5598 20.8369 83.6673 21.6289 83.8802 21.9478C84.0989 22.265 84.7623 22.4244 85.8724 22.4244C86.9826 22.4244 87.5687 22.2562 87.7968 21.9198C88.0305 21.5834 88.1455 20.7931 88.1455 19.5491C88.1455 18.305 88.0362 17.5112 87.8194 17.1783C87.6008 16.8419 87.0881 16.6737 86.2814 16.6737H85.6858C84.5908 16.6737 83.9613 16.8909 83.7973 17.3237C83.639 17.7513 83.5598 18.5012 83.5598 19.5701ZM82.3196 19.5491C82.3196 17.9966 82.5383 16.9786 82.9737 16.4949C83.4147 16.0113 84.3835 15.7695 85.88 15.7695C87.3765 15.7695 88.3905 16.0341 88.7863 16.5633C89.1878 17.0889 89.3876 18.093 89.3876 19.5753C89.3876 21.1506 89.1576 22.1704 88.6958 22.6365C88.2397 23.0973 87.3011 23.3268 85.8781 23.3268C84.2534 23.3268 83.2526 23.0482 82.8756 22.491C82.5043 21.9286 82.3177 20.9473 82.3177 19.5473" fill="#4F214C"/>
<path d="M91.2611 23.2532V15.8449H92.4655V16.7648C92.6634 16.3863 92.9518 16.127 93.3268 15.9833C93.7038 15.8414 94.2485 15.7695 94.9628 15.7695C96.0579 15.7695 96.825 15.9605 97.266 16.3425C97.7127 16.721 97.9351 17.3676 97.9351 18.284V23.2515H96.7307V18.2419C96.7307 17.6882 96.6082 17.2905 96.367 17.0469C96.1238 16.7981 95.6112 16.6737 94.829 16.6737C93.9318 16.6737 93.3136 16.8226 92.9706 17.1222C92.6332 17.4219 92.4655 18.0176 92.4655 18.9113V23.2515H91.2611V23.2532Z" fill="#4F214C"/>
<path d="M51.0418 36.6954H52.3347V37.6696C52.3347 38.6193 52.0577 39.3027 51.5016 39.7215C50.9475 40.1368 49.926 40.3435 48.4389 40.3435H46.5729C45.557 40.3435 44.7391 40.0667 44.1208 39.5147C43.5008 38.9628 43.1917 38.0954 43.1917 36.9162V32.8948C43.1917 31.8313 43.4763 31.0007 44.0473 30.4067C44.6222 29.8074 45.9001 29.5078 47.8829 29.5078H48.9836C50.1521 29.5078 50.9833 29.7338 51.4734 30.1859C51.9691 30.6327 52.216 31.3985 52.216 32.4796V32.9351H50.923V32.597C50.923 31.7769 50.7741 31.2355 50.4763 30.9727C50.1785 30.7063 49.6489 30.5714 48.8856 30.5714H47.9715C46.4957 30.5714 45.5439 30.7396 45.1179 31.076C44.6957 31.4072 44.4865 31.9627 44.4865 32.7407V36.0155C44.4865 37.37 44.6429 38.2531 44.9539 38.6614C45.2706 39.0714 45.9001 39.2764 46.8425 39.2764H48.3955C49.4453 39.2764 50.1503 39.1608 50.5065 38.9312C50.8627 38.7017 51.0418 38.2146 51.0418 37.4734V36.6919V36.6954Z" fill="#4F214C"/>
<path d="M54.6605 36.5525C54.6605 37.8194 54.768 38.6114 54.9809 38.9303C55.1996 39.2474 55.863 39.4069 56.9731 39.4069C58.0833 39.4069 58.6694 39.2387 58.8975 38.9022C59.1312 38.5658 59.2462 37.7756 59.2462 36.5315C59.2462 35.2874 59.1369 34.4937 58.9201 34.1607C58.7015 33.8243 58.1888 33.6561 57.3821 33.6561H56.7866C55.6915 33.6561 55.062 33.8734 54.898 34.3062C54.7397 34.7337 54.6605 35.4837 54.6605 36.5525ZM53.4203 36.5315C53.4203 34.979 53.639 33.961 54.0744 33.4774C54.5154 32.9938 55.4842 32.752 56.9807 32.752C58.4772 32.752 59.4912 33.0165 59.887 33.5457C60.2885 34.0714 60.4883 35.0754 60.4883 36.5578C60.4883 38.133 60.2583 39.1528 59.7966 39.6189C59.3404 40.0797 58.4018 40.3093 56.9788 40.3093C55.3541 40.3093 54.3533 40.0307 53.9764 39.4735C53.605 38.911 53.4185 37.9298 53.4185 36.5297" fill="#4F214C"/>
<path d="M62.1902 32.8273H63.3946V33.7122C63.5435 33.3845 63.796 33.1427 64.1522 32.9867C64.5085 32.8308 64.9891 32.752 65.5941 32.752C67.0605 32.752 67.7936 33.4388 67.7936 34.8108V35.3838H66.6496V34.8932C66.6496 34.4411 66.5534 34.1239 66.3593 33.94C66.1652 33.7507 65.8222 33.6561 65.3265 33.6561C64.6574 33.6561 64.1673 33.8033 63.8544 34.0977C63.5472 34.3885 63.3946 34.8984 63.3946 35.6308V40.2339H62.1902V32.8255V32.8273Z" fill="#4F214C"/>
<path d="M70.0629 35.86H74.5299C74.4959 34.9944 74.3772 34.4109 74.1736 34.1113C73.9757 33.8064 73.4028 33.6557 72.4566 33.6557C71.5104 33.6557 70.847 33.7731 70.553 34.0079C70.2608 34.2392 70.0969 34.856 70.0629 35.86ZM70.0629 36.7659V37.4492C70.0629 38.1764 70.1892 38.6863 70.4418 38.9772C70.6943 39.2628 71.2522 39.4047 72.1136 39.4047H72.4189C73.3406 39.4047 73.923 39.3259 74.1661 39.1699C74.4092 39.014 74.5299 38.6197 74.5299 37.9889H75.7719V38.2027C75.7719 39.014 75.525 39.5694 75.0293 39.8673C74.5393 40.1617 73.7006 40.3089 72.5169 40.3089C71.0355 40.3089 70.0497 40.0741 69.5578 39.6045C69.0678 39.1349 68.8228 38.1484 68.8228 36.6467C68.8228 35.1451 69.0527 34.0464 69.5145 33.5295C69.9744 33.0091 70.9299 32.748 72.3756 32.748C73.7081 32.748 74.6071 32.9688 75.0746 33.4121C75.5401 33.8502 75.7738 34.6913 75.7738 35.9336V36.7624H70.0648L70.0629 36.7659Z" fill="#4F214C"/>
<path d="M27.8928 19.3574L21.2848 25.5007L27.8891 31.6422L34.4914 25.4919L27.8928 19.3574Z" fill="#B8615B"/>
<path d="M27.8891 31.6425L27.8966 31.6477L21.2848 37.7945L27.8928 43.9378L34.5046 37.791V25.5045L34.4914 25.4922L27.8891 31.6425Z" fill="#4F214C"/>
<path d="M8.07812 25.5079L14.6767 31.6424L21.2848 25.4991L14.6786 19.3594L8.07812 25.5079Z" fill="#B8615B"/>
<path d="M14.6767 7.0625L8.06494 13.2093V25.4958L8.07813 25.5081L14.6786 19.3596L14.673 19.3525L21.2848 13.2058L14.6767 7.0625Z" fill="#4F214C"/>
</svg>
