<svg width="289" height="386" viewBox="0 0 289 386" fill="none" xmlns="http://www.w3.org/2000/svg">
<rect width="74.2719" height="75.086" transform="matrix(0.742234 -0.67014 0.742234 0.67014 145.414 148.757)" fill="#A5415B"/>
<rect width="74.2719" height="75.086" transform="matrix(0.742234 -0.67014 0.742234 0.67014 145.407 248.683)" fill="#A5415B"/>
<path d="M199.835 198.673L256.346 149.294L256.346 249.238L199.835 198.673Z" fill="#A5415B"/>
<rect width="74.3027" height="75.055" transform="matrix(-0.728772 0.684756 -0.755415 -0.655247 145.861 149.085)" fill="#A5415B"/>
<rect width="74.3027" height="75.055" transform="matrix(-0.728772 0.684756 -0.755415 -0.655247 143.928 49.1797)" fill="#A5415B"/>
<path d="M90.4826 100.282L34.941 150.795L33.0001 50.8715L90.4826 100.282Z" fill="#A5415B"/>
<path d="M18.0869 378.936C16.7002 378.936 15.4095 378.733 14.2149 378.328C13.0415 377.944 12.0175 377.4 11.1429 376.696C10.2682 376.013 9.57488 375.192 9.06288 374.232C8.57221 373.293 8.32688 372.269 8.32688 371.16C8.32688 370.755 8.35888 370.232 8.42288 369.592C8.48688 368.952 8.57221 368.216 8.67888 367.384C8.80688 366.552 8.94554 365.667 9.09488 364.728L13.3189 365.304C13.1055 366.648 12.9349 367.843 12.8069 368.888C12.6789 369.933 12.6149 370.669 12.6149 371.096C12.6149 371.907 12.8389 372.621 13.2869 373.24C13.7349 373.859 14.3642 374.339 15.1749 374.68C16.0069 375.043 16.9775 375.224 18.0869 375.224H27.1429C28.5295 375.224 29.5642 374.872 30.2469 374.168C30.9295 373.464 31.2709 372.44 31.2709 371.096V369.88H35.5269V371.096C35.5269 372.632 35.1855 373.987 34.5029 375.16C33.8202 376.333 32.8495 377.251 31.5909 377.912C30.3535 378.595 28.8709 378.936 27.1429 378.936H18.0869ZM29.8629 371C28.8815 371 27.9322 370.893 27.0149 370.68C26.1189 370.467 25.2655 370.083 24.4549 369.528L26.8869 366.456C27.2282 366.691 27.5269 366.872 27.7829 367C28.0602 367.107 28.3589 367.181 28.6789 367.224C29.0202 367.267 29.4149 367.288 29.8629 367.288H36.9349V371H29.8629ZM36.9349 371V367.288C37.0415 367.288 37.1375 367.331 37.2229 367.416C37.3082 367.501 37.3722 367.629 37.4149 367.8C37.4575 367.971 37.4895 368.173 37.5109 368.408C37.5535 368.621 37.5749 368.867 37.5749 369.144C37.5749 369.421 37.5535 369.677 37.5109 369.912C37.4895 370.147 37.4575 370.349 37.4149 370.52C37.3722 370.669 37.3082 370.787 37.2229 370.872C37.1375 370.957 37.0415 371 36.9349 371ZM16.9989 385.528V381.88H21.1269V385.528H16.9989ZM22.8229 385.528V381.88H26.9509V385.528H22.8229ZM36.9219 371V367.288H42.7779L40.2819 369.368V354.936H44.5699V371H36.9219ZM36.9219 371C36.7939 371 36.6979 370.957 36.6339 370.872C36.5485 370.787 36.4845 370.669 36.4419 370.52C36.3779 370.349 36.3352 370.147 36.3139 369.912C36.2925 369.677 36.2819 369.421 36.2819 369.144C36.2819 368.76 36.3032 368.44 36.3459 368.184C36.3885 367.907 36.4632 367.693 36.5699 367.544C36.6552 367.373 36.7725 367.288 36.9219 367.288V371ZM40.2819 351.992V348.344H44.5699V351.992H40.2819ZM54.6986 378.936C53.9093 378.936 53.0773 378.872 52.2026 378.744C51.3493 378.637 50.432 378.488 49.4506 378.296L50.0906 374.872C51.1573 375 52.064 375.096 52.8106 375.16C53.5573 375.224 54.1866 375.256 54.6986 375.256C56.2346 375.256 57.344 374.979 58.0266 374.424C58.7093 373.869 59.0506 373.037 59.0506 371.928V357.88L60.1066 358.648H56.1066C55.232 358.648 54.528 358.755 53.9946 358.968C53.4613 359.16 53.0666 359.576 52.8106 360.216C52.576 360.835 52.4586 361.784 52.4586 363.064C52.4586 364.28 52.5653 365.197 52.7786 365.816C53.0133 366.413 53.3973 366.808 53.9306 367C54.464 367.192 55.1893 367.288 56.1066 367.288H59.0506V371H56.1066C54.2933 371 52.8 370.712 51.6266 370.136C50.4533 369.56 49.5786 368.685 49.0026 367.512C48.448 366.339 48.1706 364.856 48.1706 363.064C48.1706 361.272 48.448 359.779 49.0026 358.584C49.5786 357.368 50.4533 356.461 51.6266 355.864C52.8 355.245 54.2933 354.936 56.1066 354.936H63.3386V371.928C63.3386 373.379 62.976 374.627 62.2506 375.672C61.5466 376.739 60.544 377.549 59.2426 378.104C57.9626 378.659 56.448 378.936 54.6986 378.936ZM80.4589 371V354.936H84.7469V369.368L82.2509 367.288H88.7469V371H80.4589ZM73.7389 361.848V358.104H80.4589V361.848H73.7389ZM66.7629 378.936C66.4855 378.936 66.1869 378.925 65.8669 378.904C65.5469 378.883 65.2162 378.851 64.8749 378.808L65.0349 375.16C65.3762 375.181 65.6962 375.203 65.9949 375.224C66.3149 375.245 66.5495 375.256 66.6989 375.256C67.5309 375.256 68.1922 374.925 68.6829 374.264C69.1949 373.603 69.4509 372.675 69.4509 371.48V354.936H73.7389V371.48C73.7389 372.931 73.4402 374.221 72.8429 375.352C72.2669 376.483 71.4562 377.357 70.4109 377.976C69.3655 378.616 68.1495 378.936 66.7629 378.936ZM88.7469 371V367.288C88.8535 367.288 88.9495 367.331 89.0349 367.416C89.1202 367.501 89.1842 367.629 89.2269 367.8C89.2695 367.971 89.3015 368.173 89.3229 368.408C89.3655 368.621 89.3869 368.867 89.3869 369.144C89.3869 369.421 89.3655 369.677 89.3229 369.912C89.3015 370.147 89.2695 370.349 89.2269 370.52C89.1842 370.669 89.1202 370.787 89.0349 370.872C88.9495 370.957 88.8535 371 88.7469 371ZM77.6429 351.992V348.344H81.7709V351.992H77.6429ZM83.4669 351.992V348.344H87.5949V351.992H83.4669ZM107.678 371V367.288H111.038V371H107.678ZM88.7344 371C88.6064 371 88.5104 370.957 88.4464 370.872C88.361 370.787 88.297 370.669 88.2544 370.52C88.1904 370.349 88.1477 370.147 88.1264 369.912C88.105 369.677 88.0944 369.421 88.0944 369.144C88.0944 368.76 88.1157 368.44 88.1584 368.184C88.201 367.907 88.2757 367.693 88.3824 367.544C88.4677 367.373 88.585 367.288 88.7344 367.288V371ZM88.7344 371V367.288H104.798L103.39 368.44V364.088C103.39 362.979 103.273 362.093 103.038 361.432C102.804 360.771 102.441 360.291 101.95 359.992C101.481 359.693 100.884 359.544 100.158 359.544H93.1504L90.4944 355.704L92.1264 352.632C92.3184 352.269 92.5317 351.875 92.7664 351.448C93.001 351.021 93.3104 350.509 93.6944 349.912C94.0784 349.315 94.569 348.568 95.1664 347.672L98.7504 349.688C98.1957 350.52 97.7477 351.213 97.4064 351.768C97.065 352.301 96.777 352.771 96.5424 353.176C96.3077 353.581 96.0944 353.987 95.9024 354.392L94.6224 356.792L93.9824 355.832H100.158C101.524 355.832 102.686 356.056 103.646 356.504C104.606 356.952 105.374 357.571 105.95 358.36C106.548 359.149 106.985 360.035 107.262 361.016C107.54 361.997 107.678 363.021 107.678 364.088V371H88.7344ZM111.038 371V367.288C111.166 367.288 111.273 367.331 111.358 367.416C111.444 367.501 111.508 367.629 111.55 367.8C111.593 367.971 111.625 368.173 111.646 368.408C111.668 368.621 111.678 368.867 111.678 369.144C111.678 369.421 111.668 369.677 111.646 369.912C111.625 370.147 111.593 370.349 111.55 370.52C111.508 370.669 111.444 370.787 111.358 370.872C111.273 370.957 111.166 371 111.038 371ZM114.663 371V348.376H118.951V371H114.663ZM111.047 371V367.288H114.663V371H111.047ZM111.047 371C110.919 371 110.823 370.957 110.759 370.872C110.674 370.787 110.61 370.669 110.567 370.52C110.503 370.349 110.46 370.147 110.439 369.912C110.418 369.677 110.407 369.421 110.407 369.144C110.407 368.76 110.428 368.44 110.471 368.184C110.514 367.907 110.588 367.693 110.695 367.544C110.78 367.373 110.898 367.288 111.047 367.288V371ZM122.483 371V367.288H138.739L136.691 369.4V348.376H140.979V371H122.483ZM126.931 367.288V352.856H131.187V367.288H126.931ZM127.155 380.568C126.75 380.077 126.44 379.608 126.227 379.16C126.014 378.712 125.907 378.232 125.907 377.72C125.907 376.995 126.099 376.333 126.483 375.736C126.867 375.16 127.368 374.701 127.987 374.36C128.606 374.04 129.288 373.88 130.035 373.88C130.44 373.88 130.856 373.933 131.283 374.04C131.71 374.147 132.072 374.307 132.371 374.52L131.283 376.472C131.091 376.365 130.899 376.291 130.707 376.248C130.536 376.227 130.355 376.216 130.163 376.216C129.651 376.216 129.256 376.344 128.979 376.6C128.702 376.877 128.563 377.24 128.563 377.688C128.563 377.944 128.616 378.189 128.723 378.424C128.83 378.659 128.99 378.915 129.203 379.192L127.155 380.568ZM125.203 380.824V378.488H132.947V380.824H125.203ZM146.208 371V348.376H150.464V371H146.208ZM187.272 371V367.288H190.664V371H187.272ZM170.888 379.512C169.139 379.512 167.56 379.181 166.152 378.52C164.744 377.88 163.635 376.984 162.824 375.832C162.013 374.701 161.608 373.411 161.608 371.96C161.608 371.512 161.64 370.925 161.704 370.2C161.789 369.475 161.885 368.675 161.992 367.8C162.12 366.925 162.248 366.019 162.376 365.08C162.525 364.141 162.664 363.256 162.792 362.424L167.016 363.032C166.803 364.44 166.611 365.731 166.44 366.904C166.269 368.077 166.131 369.08 166.024 369.912C165.939 370.744 165.896 371.384 165.896 371.832C165.896 372.685 166.088 373.4 166.472 373.976C166.877 374.573 167.453 375.021 168.2 375.32C168.947 375.64 169.843 375.8 170.888 375.8H178.376C179.421 375.8 180.285 375.661 180.968 375.384C181.651 375.107 182.163 374.691 182.504 374.136C182.845 373.603 183.016 372.941 183.016 372.152V357.72L184.072 358.648H180.04C179.101 358.648 178.365 358.765 177.832 359C177.299 359.235 176.925 359.672 176.712 360.312C176.499 360.931 176.392 361.816 176.392 362.968C176.392 364.227 176.499 365.165 176.712 365.784C176.925 366.381 177.299 366.787 177.832 367C178.365 367.192 179.101 367.288 180.04 367.288H183.016V371H180.04C178.227 371 176.733 370.723 175.56 370.168C174.387 369.592 173.512 368.707 172.936 367.512C172.381 366.317 172.104 364.803 172.104 362.968C172.104 361.219 172.381 359.747 172.936 358.552C173.512 357.357 174.387 356.461 175.56 355.864C176.733 355.245 178.227 354.936 180.04 354.936H187.272V372.152C187.272 373.667 186.877 374.968 186.088 376.056C185.32 377.165 184.264 378.019 182.92 378.616C181.597 379.213 180.083 379.512 178.376 379.512H170.888ZM190.664 371V367.288C190.771 367.288 190.867 367.331 190.952 367.416C191.037 367.501 191.101 367.629 191.144 367.8C191.187 367.971 191.219 368.173 191.24 368.408C191.283 368.621 191.304 368.867 191.304 369.144C191.304 369.421 191.283 369.677 191.24 369.912C191.219 370.147 191.187 370.349 191.144 370.52C191.101 370.669 191.037 370.787 190.952 370.872C190.867 370.957 190.771 371 190.664 371ZM175.56 351.992V348.344H179.688V351.992H175.56ZM181.384 351.992V348.344H185.512V351.992H181.384ZM190.672 371V367.288H198.256L195.76 369.368V354.936H200.016V371H190.672ZM190.672 371C190.544 371 190.448 370.957 190.384 370.872C190.299 370.787 190.235 370.669 190.192 370.52C190.128 370.349 190.085 370.147 190.064 369.912C190.043 369.677 190.032 369.421 190.032 369.144C190.032 368.76 190.053 368.44 190.096 368.184C190.139 367.907 190.213 367.693 190.32 367.544C190.405 367.373 190.523 367.288 190.672 367.288V371ZM191.824 377.816V374.168H195.952V377.816H191.824ZM197.648 377.816V374.168H201.776V377.816H197.648ZM218.807 371V367.288H222.167V371H218.807ZM210.167 378.936C209.378 378.936 208.546 378.872 207.671 378.744C206.818 378.637 205.901 378.488 204.919 378.296L205.559 374.872C206.626 375 207.533 375.096 208.279 375.16C209.026 375.224 209.655 375.256 210.167 375.256C211.703 375.256 212.813 374.979 213.495 374.424C214.178 373.869 214.519 373.037 214.519 371.928V357.88L215.575 358.648H211.575C210.701 358.648 209.997 358.755 209.463 358.968C208.93 359.16 208.535 359.576 208.279 360.216C208.045 360.835 207.927 361.784 207.927 363.064C207.927 364.28 208.034 365.197 208.247 365.816C208.482 366.413 208.866 366.808 209.399 367C209.933 367.192 210.658 367.288 211.575 367.288H214.519V371H211.575C209.762 371 208.269 370.712 207.095 370.136C205.922 369.56 205.047 368.685 204.471 367.512C203.917 366.339 203.639 364.856 203.639 363.064C203.639 361.272 203.917 359.779 204.471 358.584C205.047 357.368 205.922 356.461 207.095 355.864C208.269 355.245 209.762 354.936 211.575 354.936H218.807V371.928C218.807 373.379 218.445 374.627 217.719 375.672C217.015 376.739 216.013 377.549 214.711 378.104C213.431 378.659 211.917 378.936 210.167 378.936ZM222.167 371V367.288C222.295 367.288 222.391 367.331 222.455 367.416C222.541 367.501 222.605 367.629 222.647 367.8C222.711 367.971 222.754 368.173 222.775 368.408C222.797 368.621 222.807 368.867 222.807 369.144C222.807 369.421 222.797 369.677 222.775 369.912C222.754 370.147 222.711 370.349 222.647 370.52C222.605 370.669 222.541 370.787 222.455 370.872C222.391 370.957 222.295 371 222.167 371ZM249.02 371V367.288H252.412V371H249.02ZM222.172 371C222.044 371 221.948 370.957 221.884 370.872C221.799 370.787 221.735 370.669 221.692 370.52C221.628 370.349 221.585 370.147 221.564 369.912C221.543 369.677 221.532 369.421 221.532 369.144C221.532 368.76 221.553 368.44 221.596 368.184C221.639 367.907 221.713 367.693 221.82 367.544C221.905 367.373 222.023 367.288 222.172 367.288V371ZM240.988 371C240.113 371 239.239 370.84 238.364 370.52C237.511 370.179 236.721 369.677 235.996 369.016L238.62 366.296C239.047 366.637 239.441 366.893 239.804 367.064C240.188 367.213 240.583 367.288 240.988 367.288H246.972L244.764 369.304V362.2C244.764 361.859 244.721 361.347 244.636 360.664C244.572 359.96 244.465 359.171 244.316 358.296C244.188 357.4 244.028 356.493 243.836 355.576L248.06 354.936C248.209 355.704 248.348 356.568 248.476 357.528C248.625 358.467 248.753 359.363 248.86 360.216C248.967 361.048 249.02 361.709 249.02 362.2V371H240.988ZM222.172 371V367.288H226.844L225.884 368.28V358.2H230.172V371H222.172ZM230.172 371V367.288H232.764C233.447 367.288 233.969 367.192 234.332 367C234.695 366.787 234.94 366.371 235.068 365.752C235.217 365.112 235.292 364.163 235.292 362.904V356.6H239.58V362.904C239.58 364.803 239.335 366.349 238.844 367.544C238.375 368.739 237.639 369.613 236.636 370.168C235.633 370.723 234.343 371 232.764 371H230.172ZM252.412 371V367.288C252.519 367.288 252.615 367.331 252.7 367.416C252.785 367.501 252.849 367.629 252.892 367.8C252.935 367.971 252.967 368.173 252.988 368.408C253.031 368.621 253.052 368.867 253.052 369.144C253.052 369.421 253.031 369.677 252.988 369.912C252.967 370.147 252.935 370.349 252.892 370.52C252.849 370.669 252.785 370.787 252.7 370.872C252.615 370.957 252.519 371 252.412 371ZM261.766 371V367.288H265.766V371H261.766ZM265.766 371V367.288C265.873 367.288 265.969 367.331 266.054 367.416C266.139 367.501 266.203 367.629 266.246 367.8C266.289 367.971 266.321 368.173 266.342 368.408C266.385 368.621 266.406 368.867 266.406 369.144C266.406 369.421 266.385 369.677 266.342 369.912C266.321 370.147 266.289 370.349 266.246 370.52C266.203 370.669 266.139 370.787 266.054 370.872C265.99 370.957 265.894 371 265.766 371ZM252.422 371C252.294 371 252.198 370.957 252.134 370.872C252.049 370.787 251.985 370.669 251.942 370.52C251.878 370.349 251.835 370.147 251.814 369.912C251.793 369.677 251.782 369.421 251.782 369.144C251.782 368.76 251.803 368.44 251.846 368.184C251.889 367.907 251.963 367.693 252.07 367.544C252.155 367.373 252.273 367.288 252.422 367.288V371ZM252.422 371V367.288H260.006L257.51 369.368V354.936H261.766V371H252.422ZM254.694 351.992V348.344H258.822V351.992H254.694ZM260.518 351.992V348.344H264.646V351.992H260.518ZM269.382 371V348.376H273.67V371H269.382ZM265.766 371V367.288H269.382V371H265.766ZM265.766 371C265.638 371 265.542 370.957 265.478 370.872C265.392 370.787 265.328 370.669 265.286 370.52C265.222 370.349 265.179 370.147 265.158 369.912C265.136 369.677 265.126 369.421 265.126 369.144C265.126 368.76 265.147 368.44 265.19 368.184C265.232 367.907 265.307 367.693 265.414 367.544C265.499 367.373 265.616 367.288 265.766 367.288V371ZM278.802 371V348.376H283.058V371H278.802Z" fill="#A5415B"/>
</svg>
