<svg width="338" height="381" viewBox="0 0 338 381" fill="none" xmlns="http://www.w3.org/2000/svg">
<rect width="74.2719" height="75.086" transform="matrix(0.742234 -0.67014 0.742234 0.67014 169.009 148.757)" fill="#D15E5A"/>
<rect width="74.2719" height="75.086" transform="matrix(0.742234 -0.67014 0.742234 0.67014 169.002 248.683)" fill="#D15E5A"/>
<path d="M223.43 198.673L279.941 149.294L279.941 249.238L223.43 198.673Z" fill="#D15E5A"/>
<rect width="74.3027" height="75.055" transform="matrix(-0.728772 0.684756 -0.755415 -0.655247 169.456 149.085)" fill="#D15E5A"/>
<rect width="74.3027" height="75.055" transform="matrix(-0.728772 0.684756 -0.755415 -0.655247 167.523 49.1797)" fill="#D15E5A"/>
<path d="M114.077 100.282L58.5359 150.795L56.595 50.8715L114.077 100.282Z" fill="#D15E5A"/>
<path d="M7.936 371C6.12267 371 4.62933 370.712 3.456 370.136C2.28267 369.56 1.408 368.685 0.832001 367.512C0.277335 366.339 1.3113e-06 364.856 1.3113e-06 363.064C1.3113e-06 361.272 0.277335 359.779 0.832001 358.584C1.408 357.368 2.28267 356.461 3.456 355.864C4.62933 355.245 6.12267 354.936 7.936 354.936H15.168V368.984H10.88V357.72L11.936 358.648H7.936C7.06133 358.648 6.35733 358.755 5.824 358.968C5.29067 359.16 4.896 359.576 4.64 360.216C4.40533 360.835 4.288 361.784 4.288 363.064C4.288 364.28 4.39467 365.197 4.608 365.816C4.84267 366.413 5.22667 366.808 5.76 367C6.29333 367.192 7.01867 367.288 7.936 367.288H18.528V371H7.936ZM18.528 371V367.288C18.656 367.288 18.752 367.331 18.816 367.416C18.9013 367.501 18.9653 367.629 19.008 367.8C19.072 367.971 19.1147 368.173 19.136 368.408C19.1573 368.621 19.168 368.867 19.168 369.144C19.168 369.421 19.1573 369.677 19.136 369.912C19.1147 370.147 19.072 370.349 19.008 370.52C18.9653 370.669 18.9013 370.787 18.816 370.872C18.752 370.957 18.656 371 18.528 371ZM3.168 351.992V348.344H7.296V351.992H3.168ZM8.992 351.992V348.344H13.12V351.992H8.992ZM27.8765 371V367.288H31.8765V371H27.8765ZM31.8765 371V367.288C31.9832 367.288 32.0792 367.331 32.1645 367.416C32.2498 367.501 32.3138 367.629 32.3565 367.8C32.3992 367.971 32.4312 368.173 32.4525 368.408C32.4952 368.621 32.5165 368.867 32.5165 369.144C32.5165 369.421 32.4952 369.677 32.4525 369.912C32.4312 370.147 32.3992 370.349 32.3565 370.52C32.3138 370.669 32.2498 370.787 32.1645 370.872C32.1005 370.957 32.0045 371 31.8765 371ZM18.5325 371C18.4045 371 18.3085 370.957 18.2445 370.872C18.1592 370.787 18.0952 370.669 18.0525 370.52C17.9885 370.349 17.9458 370.147 17.9245 369.912C17.9032 369.677 17.8925 369.421 17.8925 369.144C17.8925 368.76 17.9138 368.44 17.9565 368.184C17.9992 367.907 18.0738 367.693 18.1805 367.544C18.2658 367.373 18.3832 367.288 18.5325 367.288V371ZM18.5325 371V367.288H26.1165L23.6205 369.368V354.936H27.8765V371H18.5325ZM19.6845 377.816V374.168H23.8125V377.816H19.6845ZM25.5085 377.816V374.168H29.6365V377.816H25.5085ZM31.8763 371V367.288H37.7323L35.2363 369.368V354.936H39.5243V371H31.8763ZM31.8763 371C31.7483 371 31.6523 370.957 31.5883 370.872C31.5029 370.787 31.4389 370.669 31.3963 370.52C31.3323 370.349 31.2896 370.147 31.2683 369.912C31.2469 369.677 31.2363 369.421 31.2363 369.144C31.2363 368.76 31.2576 368.44 31.3003 368.184C31.3429 367.907 31.4176 367.693 31.5243 367.544C31.6096 367.373 31.7269 367.288 31.8763 367.288V371ZM35.2363 351.992V348.344H39.5243V351.992H35.2363ZM49.653 378.936C48.8637 378.936 48.0317 378.872 47.157 378.744C46.3037 378.637 45.3863 378.488 44.405 378.296L45.045 374.872C46.1117 375 47.0183 375.096 47.765 375.16C48.5117 375.224 49.141 375.256 49.653 375.256C51.189 375.256 52.2983 374.979 52.981 374.424C53.6637 373.869 54.005 373.037 54.005 371.928V357.88L55.061 358.648H51.061C50.1863 358.648 49.4823 358.755 48.949 358.968C48.4157 359.16 48.021 359.576 47.765 360.216C47.5303 360.835 47.413 361.784 47.413 363.064C47.413 364.28 47.5197 365.197 47.733 365.816C47.9677 366.413 48.3517 366.808 48.885 367C49.4183 367.192 50.1437 367.288 51.061 367.288H54.005V371H51.061C49.2477 371 47.7543 370.712 46.581 370.136C45.4077 369.56 44.533 368.685 43.957 367.512C43.4023 366.339 43.125 364.856 43.125 363.064C43.125 361.272 43.4023 359.779 43.957 358.584C44.533 357.368 45.4077 356.461 46.581 355.864C47.7543 355.245 49.2477 354.936 51.061 354.936H58.293V371.928C58.293 373.379 57.9303 374.627 57.205 375.672C56.501 376.739 55.4983 377.549 54.197 378.104C52.917 378.659 51.4023 378.936 49.653 378.936ZM75.4133 371V354.936H79.7013V369.368L77.2053 367.288H83.7013V371H75.4133ZM68.6933 361.848V358.104H75.4133V361.848H68.6933ZM61.7173 378.936C61.4399 378.936 61.1413 378.925 60.8213 378.904C60.5013 378.883 60.1706 378.851 59.8293 378.808L59.9893 375.16C60.3306 375.181 60.6506 375.203 60.9493 375.224C61.2693 375.245 61.5039 375.256 61.6533 375.256C62.4853 375.256 63.1466 374.925 63.6373 374.264C64.1493 373.603 64.4053 372.675 64.4053 371.48V354.936H68.6933V371.48C68.6933 372.931 68.3946 374.221 67.7973 375.352C67.2213 376.483 66.4106 377.357 65.3653 377.976C64.3199 378.616 63.1039 378.936 61.7173 378.936ZM83.7013 371V367.288C83.8079 367.288 83.9039 367.331 83.9893 367.416C84.0746 367.501 84.1386 367.629 84.1813 367.8C84.2239 367.971 84.2559 368.173 84.2773 368.408C84.3199 368.621 84.3413 368.867 84.3413 369.144C84.3413 369.421 84.3199 369.677 84.2773 369.912C84.2559 370.147 84.2239 370.349 84.1813 370.52C84.1386 370.669 84.0746 370.787 83.9893 370.872C83.9039 370.957 83.8079 371 83.7013 371ZM72.5973 351.992V348.344H76.7253V351.992H72.5973ZM78.4213 351.992V348.344H82.5493V351.992H78.4213ZM102.633 371V367.288H105.993V371H102.633ZM83.6888 371C83.5608 371 83.4648 370.957 83.4008 370.872C83.3154 370.787 83.2514 370.669 83.2088 370.52C83.1448 370.349 83.1021 370.147 83.0808 369.912C83.0594 369.677 83.0488 369.421 83.0488 369.144C83.0488 368.76 83.0701 368.44 83.1128 368.184C83.1554 367.907 83.2301 367.693 83.3368 367.544C83.4221 367.373 83.5394 367.288 83.6888 367.288V371ZM83.6888 371V367.288H99.7528L98.3448 368.44V364.088C98.3448 362.979 98.2274 362.093 97.9928 361.432C97.7581 360.771 97.3954 360.291 96.9048 359.992C96.4354 359.693 95.8381 359.544 95.1128 359.544H88.1048L85.4488 355.704L87.0808 352.632C87.2728 352.269 87.4861 351.875 87.7208 351.448C87.9554 351.021 88.2648 350.509 88.6488 349.912C89.0328 349.315 89.5234 348.568 90.1208 347.672L93.7048 349.688C93.1501 350.52 92.7021 351.213 92.3608 351.768C92.0194 352.301 91.7314 352.771 91.4968 353.176C91.2621 353.581 91.0488 353.987 90.8568 354.392L89.5768 356.792L88.9368 355.832H95.1128C96.4781 355.832 97.6408 356.056 98.6008 356.504C99.5608 356.952 100.329 357.571 100.905 358.36C101.502 359.149 101.939 360.035 102.217 361.016C102.494 361.997 102.633 363.021 102.633 364.088V371H83.6888ZM105.993 371V367.288C106.121 367.288 106.227 367.331 106.313 367.416C106.398 367.501 106.462 367.629 106.505 367.8C106.547 367.971 106.579 368.173 106.601 368.408C106.622 368.621 106.633 368.867 106.633 369.144C106.633 369.421 106.622 369.677 106.601 369.912C106.579 370.147 106.547 370.349 106.505 370.52C106.462 370.669 106.398 370.787 106.313 370.872C106.227 370.957 106.121 371 105.993 371ZM109.617 371V348.376H113.905V371H109.617ZM106.001 371V367.288H109.617V371H106.001ZM106.001 371C105.873 371 105.777 370.957 105.713 370.872C105.628 370.787 105.564 370.669 105.521 370.52C105.457 370.349 105.415 370.147 105.393 369.912C105.372 369.677 105.361 369.421 105.361 369.144C105.361 368.76 105.383 368.44 105.425 368.184C105.468 367.907 105.543 367.693 105.649 367.544C105.735 367.373 105.852 367.288 106.001 367.288V371ZM117.438 371V367.288H133.694L131.646 369.4V348.376H135.934V371H117.438ZM121.886 367.288V352.856H126.142V367.288H121.886ZM122.11 380.568C121.704 380.077 121.395 379.608 121.182 379.16C120.968 378.712 120.862 378.232 120.862 377.72C120.862 376.995 121.054 376.333 121.438 375.736C121.822 375.16 122.323 374.701 122.942 374.36C123.56 374.04 124.243 373.88 124.99 373.88C125.395 373.88 125.811 373.933 126.238 374.04C126.664 374.147 127.027 374.307 127.326 374.52L126.238 376.472C126.046 376.365 125.854 376.291 125.662 376.248C125.491 376.227 125.31 376.216 125.118 376.216C124.606 376.216 124.211 376.344 123.934 376.6C123.656 376.877 123.518 377.24 123.518 377.688C123.518 377.944 123.571 378.189 123.678 378.424C123.784 378.659 123.944 378.915 124.158 379.192L122.11 380.568ZM120.158 380.824V378.488H127.902V380.824H120.158ZM141.163 371V348.376H145.419V371H141.163ZM162.707 371V367.288H166.835V371H162.707ZM156.499 378.936C156.221 378.936 155.923 378.925 155.603 378.904C155.283 378.883 154.952 378.851 154.611 378.808L154.771 375.16C155.112 375.181 155.432 375.203 155.731 375.224C156.051 375.245 156.285 375.256 156.435 375.256C157.267 375.256 157.928 374.925 158.419 374.264C158.931 373.603 159.187 372.675 159.187 371.48V354.936H163.475V371.48C163.475 372.931 163.176 374.221 162.579 375.352C162.003 376.483 161.192 377.357 160.147 377.976C159.101 378.616 157.885 378.936 156.499 378.936ZM166.835 371V367.288C166.963 367.288 167.059 367.331 167.123 367.416C167.208 367.501 167.272 367.629 167.315 367.8C167.379 367.971 167.421 368.173 167.443 368.408C167.464 368.621 167.475 368.867 167.475 369.144C167.475 369.421 167.464 369.677 167.443 369.912C167.421 370.147 167.379 370.349 167.315 370.52C167.272 370.669 167.208 370.787 167.123 370.872C167.059 370.957 166.963 371 166.835 371ZM166.845 371V367.288H180.605L179.165 368.472V362.552C179.165 361.272 178.76 360.301 177.949 359.64C177.16 358.979 175.901 358.648 174.173 358.648C173.682 358.648 173.01 358.691 172.157 358.776C171.304 358.84 170.376 358.947 169.373 359.096L168.957 355.704C169.874 355.491 170.802 355.309 171.741 355.16C172.701 355.011 173.64 354.936 174.557 354.936C176.306 354.936 177.842 355.245 179.165 355.864C180.488 356.461 181.522 357.325 182.269 358.456C183.037 359.587 183.421 360.952 183.421 362.552V371H166.845ZM166.845 371C166.717 371 166.621 370.957 166.557 370.872C166.472 370.787 166.408 370.669 166.365 370.52C166.301 370.349 166.258 370.147 166.237 369.912C166.216 369.677 166.205 369.421 166.205 369.144C166.205 368.76 166.226 368.44 166.269 368.184C166.312 367.907 166.386 367.693 166.493 367.544C166.578 367.373 166.696 367.288 166.845 367.288V371ZM173.021 377.816V374.168H177.309V377.816H173.021ZM192.481 371V367.288H196.129V371H192.481ZM188.225 371V348.376H192.481V371H188.225ZM196.129 371V367.288C196.257 367.288 196.353 367.331 196.417 367.416C196.502 367.501 196.566 367.629 196.609 367.8C196.673 367.971 196.716 368.173 196.737 368.408C196.758 368.621 196.769 368.867 196.769 369.144C196.769 369.421 196.758 369.677 196.737 369.912C196.716 370.147 196.673 370.349 196.609 370.52C196.566 370.669 196.502 370.787 196.417 370.872C196.353 370.957 196.257 371 196.129 371ZM205.47 371V367.288H209.47V371H205.47ZM209.47 371V367.288C209.577 367.288 209.673 367.331 209.758 367.416C209.844 367.501 209.908 367.629 209.95 367.8C209.993 367.971 210.025 368.173 210.046 368.408C210.089 368.621 210.11 368.867 210.11 369.144C210.11 369.421 210.089 369.677 210.046 369.912C210.025 370.147 209.993 370.349 209.95 370.52C209.908 370.669 209.844 370.787 209.758 370.872C209.694 370.957 209.598 371 209.47 371ZM196.126 371C195.998 371 195.902 370.957 195.838 370.872C195.753 370.787 195.689 370.669 195.646 370.52C195.582 370.349 195.54 370.147 195.518 369.912C195.497 369.677 195.486 369.421 195.486 369.144C195.486 368.76 195.508 368.44 195.55 368.184C195.593 367.907 195.668 367.693 195.774 367.544C195.86 367.373 195.977 367.288 196.126 367.288V371ZM196.126 371V367.288H203.71L201.214 369.368V354.936H205.47V371H196.126ZM198.398 351.992V348.344H202.526V351.992H198.398ZM204.222 351.992V348.344H208.35V351.992H204.222ZM228.382 371V367.288H231.774V371H228.382ZM209.47 371C209.342 371 209.246 370.957 209.182 370.872C209.097 370.787 209.033 370.669 208.99 370.52C208.926 370.349 208.883 370.147 208.862 369.912C208.841 369.677 208.83 369.421 208.83 369.144C208.83 368.76 208.851 368.44 208.894 368.184C208.937 367.907 209.011 367.693 209.118 367.544C209.203 367.373 209.321 367.288 209.47 367.288V371ZM209.47 371V367.288H226.078L224.126 368.952V363.064C224.126 361.912 223.998 361.016 223.742 360.376C223.486 359.715 223.038 359.256 222.398 359C221.779 358.723 220.915 358.584 219.806 358.584C218.931 358.584 218.067 358.648 217.214 358.776C216.382 358.883 215.731 359.032 215.262 359.224L217.918 356.728C217.79 357.219 217.662 357.837 217.534 358.584C217.427 359.331 217.331 360.131 217.246 360.984C217.161 361.816 217.118 362.637 217.118 363.448C217.118 364.195 217.15 364.973 217.214 365.784C217.299 366.595 217.385 367.309 217.47 367.928C217.577 368.547 217.662 368.973 217.726 369.208L213.662 370.328C213.577 370.029 213.47 369.539 213.342 368.856C213.214 368.173 213.097 367.363 212.99 366.424C212.905 365.485 212.862 364.493 212.862 363.448C212.862 362.381 212.915 361.357 213.022 360.376C213.129 359.373 213.246 358.477 213.374 357.688C213.523 356.877 213.662 356.227 213.79 355.736C214.302 355.544 215.102 355.352 216.19 355.16C217.278 354.968 218.483 354.872 219.806 354.872C221.726 354.872 223.315 355.139 224.574 355.672C225.854 356.205 226.803 357.069 227.422 358.264C228.062 359.459 228.382 361.069 228.382 363.096V371H209.47ZM231.774 371V367.288C231.881 367.288 231.977 367.331 232.062 367.416C232.147 367.501 232.211 367.629 232.254 367.8C232.297 367.971 232.329 368.173 232.35 368.408C232.393 368.621 232.414 368.867 232.414 369.144C232.414 369.421 232.393 369.677 232.35 369.912C232.329 370.147 232.297 370.349 232.254 370.52C232.211 370.669 232.147 370.787 232.062 370.872C231.977 370.957 231.881 371 231.774 371ZM235.399 371V348.376H239.687V371H235.399ZM231.783 371V367.288H235.399V371H231.783ZM231.783 371C231.655 371 231.559 370.957 231.495 370.872C231.409 370.787 231.345 370.669 231.303 370.52C231.239 370.349 231.196 370.147 231.175 369.912C231.153 369.677 231.143 369.421 231.143 369.144C231.143 368.76 231.164 368.44 231.207 368.184C231.249 367.907 231.324 367.693 231.431 367.544C231.516 367.373 231.633 367.288 231.783 367.288V371ZM244.819 371V348.376H249.075V371H244.819ZM264.379 370.264C263.483 369.261 262.811 368.28 262.363 367.32C261.936 366.36 261.723 365.336 261.723 364.248C261.723 363.096 261.936 362.04 262.363 361.08C262.811 360.12 263.419 359.288 264.187 358.584C264.955 357.88 265.84 357.336 266.843 356.952C267.867 356.547 268.944 356.344 270.075 356.344C270.949 356.344 271.803 356.461 272.635 356.696C273.488 356.909 274.224 357.229 274.843 357.656L272.923 360.76C272.496 360.525 272.059 360.355 271.611 360.248C271.184 360.12 270.725 360.056 270.235 360.056C269.403 360.056 268.667 360.237 268.027 360.6C267.387 360.941 266.885 361.421 266.523 362.04C266.181 362.659 266.011 363.373 266.011 364.184C266.011 364.845 266.128 365.464 266.363 366.04C266.619 366.616 267.024 367.213 267.579 367.832L264.379 370.264ZM260.155 371V367.288H276.379V371H260.155ZM284.575 371V367.288H288.223V371H284.575ZM280.319 371V348.376H284.575V371H280.319ZM288.223 371V367.288C288.351 367.288 288.447 367.331 288.511 367.416C288.596 367.501 288.66 367.629 288.703 367.8C288.767 367.971 288.809 368.173 288.831 368.408C288.852 368.621 288.863 368.867 288.863 369.144C288.863 369.421 288.852 369.677 288.831 369.912C288.809 370.147 288.767 370.349 288.703 370.52C288.66 370.669 288.596 370.787 288.511 370.872C288.447 370.957 288.351 371 288.223 371ZM315.068 371V367.288H318.46V371H315.068ZM288.22 371C288.092 371 287.996 370.957 287.932 370.872C287.847 370.787 287.783 370.669 287.74 370.52C287.676 370.349 287.633 370.147 287.612 369.912C287.591 369.677 287.58 369.421 287.58 369.144C287.58 368.76 287.601 368.44 287.644 368.184C287.687 367.907 287.761 367.693 287.868 367.544C287.953 367.373 288.071 367.288 288.22 367.288V371ZM307.036 371C306.161 371 305.287 370.84 304.412 370.52C303.559 370.179 302.769 369.677 302.044 369.016L304.668 366.296C305.095 366.637 305.489 366.893 305.852 367.064C306.236 367.213 306.631 367.288 307.036 367.288H313.02L310.812 369.304V362.2C310.812 361.859 310.769 361.347 310.684 360.664C310.62 359.96 310.513 359.171 310.364 358.296C310.236 357.4 310.076 356.493 309.884 355.576L314.108 354.936C314.257 355.704 314.396 356.568 314.524 357.528C314.673 358.467 314.801 359.363 314.908 360.216C315.015 361.048 315.068 361.709 315.068 362.2V371H307.036ZM288.22 371V367.288H292.892L291.932 368.28V358.2H296.22V371H288.22ZM296.22 371V367.288H298.812C299.495 367.288 300.017 367.192 300.38 367C300.743 366.787 300.988 366.371 301.116 365.752C301.265 365.112 301.34 364.163 301.34 362.904V356.6H305.628V362.904C305.628 364.803 305.383 366.349 304.892 367.544C304.423 368.739 303.687 369.613 302.684 370.168C301.681 370.723 300.391 371 298.812 371H296.22ZM318.46 371V367.288C318.567 367.288 318.663 367.331 318.748 367.416C318.833 367.501 318.897 367.629 318.94 367.8C318.983 367.971 319.015 368.173 319.036 368.408C319.079 368.621 319.1 368.867 319.1 369.144C319.1 369.421 319.079 369.677 319.036 369.912C319.015 370.147 318.983 370.349 318.94 370.52C318.897 370.669 318.833 370.787 318.748 370.872C318.663 370.957 318.567 371 318.46 371ZM301.66 347.096V343.896H305.372V347.096H301.66ZM298.556 351.992V348.344H302.684V351.992H298.556ZM304.38 351.992V348.344H308.508V351.992H304.38ZM318.47 371V367.288H324.326L321.83 369.368V354.936H326.118V371H318.47ZM318.47 371C318.342 371 318.246 370.957 318.182 370.872C318.097 370.787 318.033 370.669 317.99 370.52C317.926 370.349 317.883 370.147 317.862 369.912C317.841 369.677 317.83 369.421 317.83 369.144C317.83 368.76 317.851 368.44 317.894 368.184C317.937 367.907 318.011 367.693 318.118 367.544C318.203 367.373 318.321 367.288 318.47 367.288V371ZM321.83 351.992V348.344H326.118V351.992H321.83ZM331.319 371V348.376H335.575V371H331.319ZM331.511 380.568C331.105 380.077 330.796 379.608 330.583 379.16C330.369 378.712 330.263 378.232 330.263 377.72C330.263 376.995 330.455 376.333 330.839 375.736C331.223 375.16 331.724 374.701 332.343 374.36C332.961 374.04 333.644 373.88 334.391 373.88C334.796 373.88 335.212 373.933 335.639 374.04C336.065 374.147 336.428 374.307 336.727 374.52L335.639 376.472C335.447 376.365 335.255 376.291 335.063 376.248C334.892 376.227 334.711 376.216 334.519 376.216C334.007 376.216 333.612 376.344 333.335 376.6C333.057 376.877 332.919 377.24 332.919 377.688C332.919 377.944 332.972 378.189 333.079 378.424C333.185 378.659 333.345 378.915 333.559 379.192L331.511 380.568ZM329.559 380.824V378.488H337.303V380.824H329.559Z" fill="#D15E5A"/>
</svg>
