<svg width="289" height="386" viewBox="0 0 289 386" fill="none" xmlns="http://www.w3.org/2000/svg">
<rect width="74.2719" height="75.086" transform="matrix(0.742234 -0.67014 0.742234 0.67014 145.414 148.757)" fill="#7F2F5C"/>
<rect width="74.2719" height="75.086" transform="matrix(0.742234 -0.67014 0.742234 0.67014 145.407 248.683)" fill="#7F2F5C"/>
<path d="M199.835 198.673L256.346 149.294L256.346 249.238L199.835 198.673Z" fill="#7F2F5C"/>
<rect width="74.3027" height="75.055" transform="matrix(-0.728772 0.684756 -0.755415 -0.655247 145.861 149.085)" fill="#7F2F5C"/>
<rect width="74.3027" height="75.055" transform="matrix(-0.728772 0.684756 -0.755415 -0.655247 143.928 49.1797)" fill="#7F2F5C"/>
<path d="M90.4825 100.282L34.9409 150.795L33 50.8715L90.4825 100.282Z" fill="#7F2F5C"/>
<path d="M43.8369 378.936C42.4502 378.936 41.1595 378.733 39.9649 378.328C38.7915 377.944 37.7675 377.4 36.8929 376.696C36.0182 376.013 35.3249 375.192 34.8129 374.232C34.3222 373.293 34.0769 372.269 34.0769 371.16C34.0769 370.755 34.1089 370.232 34.1729 369.592C34.2369 368.952 34.3222 368.216 34.4289 367.384C34.5569 366.552 34.6955 365.667 34.8449 364.728L39.0689 365.304C38.8555 366.648 38.6849 367.843 38.5569 368.888C38.4289 369.933 38.3649 370.669 38.3649 371.096C38.3649 371.907 38.5889 372.621 39.0369 373.24C39.4849 373.859 40.1142 374.339 40.9249 374.68C41.7569 375.043 42.7275 375.224 43.8369 375.224H52.8929C54.2795 375.224 55.3142 374.872 55.9969 374.168C56.6795 373.464 57.0209 372.44 57.0209 371.096V369.88H61.2769V371.096C61.2769 372.632 60.9355 373.987 60.2529 375.16C59.5702 376.333 58.5995 377.251 57.3409 377.912C56.1035 378.595 54.6209 378.936 52.8929 378.936H43.8369ZM55.6129 371C54.6315 371 53.6822 370.893 52.7649 370.68C51.8689 370.467 51.0155 370.083 50.2049 369.528L52.6369 366.456C52.9782 366.691 53.2769 366.872 53.5329 367C53.8102 367.107 54.1089 367.181 54.4289 367.224C54.7702 367.267 55.1649 367.288 55.6129 367.288H62.6849V371H55.6129ZM62.6849 371V367.288C62.7915 367.288 62.8875 367.331 62.9729 367.416C63.0582 367.501 63.1222 367.629 63.1649 367.8C63.2075 367.971 63.2395 368.173 63.2609 368.408C63.3035 368.621 63.3249 368.867 63.3249 369.144C63.3249 369.421 63.3035 369.677 63.2609 369.912C63.2395 370.147 63.2075 370.349 63.1649 370.52C63.1222 370.669 63.0582 370.787 62.9729 370.872C62.8875 370.957 62.7915 371 62.6849 371ZM42.7489 385.528V381.88H46.8769V385.528H42.7489ZM48.5729 385.528V381.88H52.7009V385.528H48.5729ZM62.6719 371V367.288H68.5279L66.0319 369.368V354.936H70.3199V371H62.6719ZM62.6719 371C62.5439 371 62.4479 370.957 62.3839 370.872C62.2985 370.787 62.2345 370.669 62.1919 370.52C62.1279 370.349 62.0852 370.147 62.0639 369.912C62.0425 369.677 62.0319 369.421 62.0319 369.144C62.0319 368.76 62.0532 368.44 62.0959 368.184C62.1385 367.907 62.2132 367.693 62.3199 367.544C62.4052 367.373 62.5225 367.288 62.6719 367.288V371ZM66.0319 351.992V348.344H70.3199V351.992H66.0319ZM92.4166 371V367.288H95.7766V371H92.4166ZM73.9206 371V367.288H90.1766L88.1286 369.4V348.376H92.4166V371H73.9206ZM78.3686 367.288V352.856H82.6246V367.288H78.3686ZM95.7766 371V367.288C95.9046 367.288 96.0006 367.331 96.0646 367.416C96.15 367.501 96.214 367.629 96.2566 367.8C96.3206 367.971 96.3633 368.173 96.3846 368.408C96.406 368.621 96.4166 368.867 96.4166 369.144C96.4166 369.421 96.406 369.677 96.3846 369.912C96.3633 370.147 96.3206 370.349 96.2566 370.52C96.214 370.669 96.15 370.787 96.0646 370.872C96.0006 370.957 95.9046 371 95.7766 371ZM101.782 370.488C100.694 369.464 99.8723 368.376 99.3176 367.224C98.7843 366.072 98.5176 364.845 98.5176 363.544C98.5176 362.285 98.7523 361.133 99.2216 360.088C99.691 359.021 100.331 358.104 101.142 357.336C101.952 356.568 102.891 355.981 103.958 355.576C105.046 355.149 106.187 354.936 107.382 354.936C108.022 354.936 108.694 355 109.398 355.128C110.102 355.256 110.774 355.427 111.414 355.64L110.134 359.128C109.686 358.979 109.238 358.861 108.79 358.776C108.363 358.691 107.947 358.648 107.542 358.648C106.603 358.648 105.771 358.861 105.046 359.288C104.32 359.693 103.755 360.259 103.35 360.984C102.966 361.709 102.774 362.541 102.774 363.48C102.774 364.333 102.944 365.133 103.286 365.88C103.648 366.627 104.16 367.299 104.822 367.896L101.782 370.488ZM95.7656 371V367.288H111.702V371H95.7656ZM95.7656 371C95.6376 371 95.5416 370.957 95.4776 370.872C95.3923 370.787 95.3283 370.669 95.2856 370.52C95.2216 370.349 95.179 370.147 95.1576 369.912C95.1363 369.677 95.1256 369.421 95.1256 369.144C95.1256 368.76 95.147 368.44 95.1896 368.184C95.2323 367.907 95.307 367.693 95.4136 367.544C95.499 367.373 95.6163 367.288 95.7656 367.288V371ZM115.546 371V367.288H131.802L129.754 369.4V348.376H134.042V371H115.546ZM119.994 367.288V352.856H124.25V367.288H119.994ZM120.218 380.568C119.812 380.077 119.503 379.608 119.29 379.16C119.076 378.712 118.97 378.232 118.97 377.72C118.97 376.995 119.162 376.333 119.546 375.736C119.93 375.16 120.431 374.701 121.05 374.36C121.668 374.04 122.351 373.88 123.098 373.88C123.503 373.88 123.919 373.933 124.346 374.04C124.772 374.147 125.135 374.307 125.434 374.52L124.346 376.472C124.154 376.365 123.962 376.291 123.77 376.248C123.599 376.227 123.418 376.216 123.226 376.216C122.714 376.216 122.319 376.344 122.042 376.6C121.764 376.877 121.626 377.24 121.626 377.688C121.626 377.944 121.679 378.189 121.786 378.424C121.892 378.659 122.052 378.915 122.266 379.192L120.218 380.568ZM118.266 380.824V378.488H126.01V380.824H118.266ZM139.271 371V348.376H143.527V371H139.271ZM160.815 371V367.288H164.943V371H160.815ZM154.607 378.936C154.329 378.936 154.031 378.925 153.711 378.904C153.391 378.883 153.06 378.851 152.719 378.808L152.879 375.16C153.22 375.181 153.54 375.203 153.839 375.224C154.159 375.245 154.393 375.256 154.543 375.256C155.375 375.256 156.036 374.925 156.527 374.264C157.039 373.603 157.295 372.675 157.295 371.48V354.936H161.583V371.48C161.583 372.931 161.284 374.221 160.687 375.352C160.111 376.483 159.3 377.357 158.255 377.976C157.209 378.616 155.993 378.936 154.607 378.936ZM164.943 371V367.288C165.071 367.288 165.167 367.331 165.231 367.416C165.316 367.501 165.38 367.629 165.423 367.8C165.487 367.971 165.529 368.173 165.551 368.408C165.572 368.621 165.583 368.867 165.583 369.144C165.583 369.421 165.572 369.677 165.551 369.912C165.529 370.147 165.487 370.349 165.423 370.52C165.38 370.669 165.316 370.787 165.231 370.872C165.167 370.957 165.071 371 164.943 371ZM164.953 371V367.288H172.537L170.041 369.368V354.936H174.297V371H164.953ZM164.953 371C164.825 371 164.729 370.957 164.665 370.872C164.58 370.787 164.516 370.669 164.473 370.52C164.409 370.349 164.366 370.147 164.345 369.912C164.324 369.677 164.313 369.421 164.313 369.144C164.313 368.76 164.334 368.44 164.377 368.184C164.42 367.907 164.494 367.693 164.601 367.544C164.686 367.373 164.804 367.288 164.953 367.288V371ZM166.105 377.816V374.168H170.233V377.816H166.105ZM171.929 377.816V374.168H176.057V377.816H171.929ZM193.089 371V367.288H196.449V371H193.089ZM184.449 378.936C183.659 378.936 182.827 378.872 181.953 378.744C181.099 378.637 180.182 378.488 179.201 378.296L179.841 374.872C180.907 375 181.814 375.096 182.561 375.16C183.307 375.224 183.937 375.256 184.449 375.256C185.985 375.256 187.094 374.979 187.777 374.424C188.459 373.869 188.801 373.037 188.801 371.928V357.88L189.857 358.648H185.857C184.982 358.648 184.278 358.755 183.745 358.968C183.211 359.16 182.817 359.576 182.561 360.216C182.326 360.835 182.209 361.784 182.209 363.064C182.209 364.28 182.315 365.197 182.529 365.816C182.763 366.413 183.147 366.808 183.681 367C184.214 367.192 184.939 367.288 185.857 367.288H188.801V371H185.857C184.043 371 182.55 370.712 181.377 370.136C180.203 369.56 179.329 368.685 178.753 367.512C178.198 366.339 177.921 364.856 177.921 363.064C177.921 361.272 178.198 359.779 178.753 358.584C179.329 357.368 180.203 356.461 181.377 355.864C182.55 355.245 184.043 354.936 185.857 354.936H193.089V371.928C193.089 373.379 192.726 374.627 192.001 375.672C191.297 376.739 190.294 377.549 188.993 378.104C187.713 378.659 186.198 378.936 184.449 378.936ZM196.449 371V367.288C196.577 367.288 196.673 367.331 196.737 367.416C196.822 367.501 196.886 367.629 196.929 367.8C196.993 367.971 197.035 368.173 197.057 368.408C197.078 368.621 197.089 368.867 197.089 369.144C197.089 369.421 197.078 369.677 197.057 369.912C197.035 370.147 196.993 370.349 196.929 370.52C196.886 370.669 196.822 370.787 196.737 370.872C196.673 370.957 196.577 371 196.449 371ZM221.317 371V367.288H224.677V371H221.317ZM196.453 371C196.325 371 196.229 370.957 196.165 370.872C196.08 370.787 196.016 370.669 195.973 370.52C195.909 370.349 195.866 370.147 195.845 369.912C195.824 369.677 195.813 369.421 195.813 369.144C195.813 368.76 195.834 368.44 195.877 368.184C195.92 367.907 195.994 367.693 196.101 367.544C196.186 367.373 196.304 367.288 196.453 367.288V371ZM196.453 371V367.288H220.645L217.029 370.424V363.704C217.029 362.488 216.869 361.517 216.549 360.792C216.229 360.045 215.76 359.501 215.141 359.16C214.544 358.819 213.818 358.648 212.965 358.648C212.048 358.648 211.173 358.829 210.341 359.192C209.53 359.555 208.773 360.024 208.069 360.6C207.365 361.176 206.714 361.795 206.117 362.456C205.52 363.117 204.986 363.757 204.517 364.376C204.048 364.973 203.642 365.485 203.301 365.912L202.341 362.808C203.173 361.805 203.92 360.888 204.581 360.056C205.242 359.224 205.872 358.488 206.469 357.848C207.088 357.208 207.728 356.675 208.389 356.248C209.072 355.821 209.808 355.501 210.597 355.288C211.408 355.053 212.346 354.936 213.413 354.936C214.842 354.936 216.058 355.181 217.061 355.672C218.064 356.141 218.874 356.792 219.493 357.624C220.133 358.456 220.592 359.395 220.869 360.44C221.168 361.485 221.317 362.573 221.317 363.704V371H196.453ZM200.485 367.288V354.936H204.773V367.288H200.485ZM224.677 371V367.288C224.805 367.288 224.901 367.331 224.965 367.416C225.05 367.501 225.114 367.629 225.157 367.8C225.221 367.971 225.264 368.173 225.285 368.408C225.306 368.621 225.317 368.867 225.317 369.144C225.317 369.421 225.306 369.677 225.285 369.912C225.264 370.147 225.221 370.349 225.157 370.52C225.114 370.669 225.05 370.787 224.965 370.872C224.901 370.957 224.805 371 224.677 371ZM234.016 371V367.288H238.016V371H234.016ZM238.016 371V367.288C238.123 367.288 238.219 367.331 238.304 367.416C238.389 367.501 238.453 367.629 238.496 367.8C238.539 367.971 238.571 368.173 238.592 368.408C238.635 368.621 238.656 368.867 238.656 369.144C238.656 369.421 238.635 369.677 238.592 369.912C238.571 370.147 238.539 370.349 238.496 370.52C238.453 370.669 238.389 370.787 238.304 370.872C238.24 370.957 238.144 371 238.016 371ZM224.672 371C224.544 371 224.448 370.957 224.384 370.872C224.299 370.787 224.235 370.669 224.192 370.52C224.128 370.349 224.085 370.147 224.064 369.912C224.043 369.677 224.032 369.421 224.032 369.144C224.032 368.76 224.053 368.44 224.096 368.184C224.139 367.907 224.213 367.693 224.32 367.544C224.405 367.373 224.523 367.288 224.672 367.288V371ZM224.672 371V367.288H232.256L229.76 369.368V354.936H234.016V371H224.672ZM226.944 351.992V348.344H231.072V351.992H226.944ZM232.768 351.992V348.344H236.896V351.992H232.768ZM241.632 371V348.376H245.92V371H241.632ZM238.016 371V367.288H241.632V371H238.016ZM238.016 371C237.888 371 237.792 370.957 237.728 370.872C237.642 370.787 237.578 370.669 237.536 370.52C237.472 370.349 237.429 370.147 237.408 369.912C237.386 369.677 237.376 369.421 237.376 369.144C237.376 368.76 237.397 368.44 237.44 368.184C237.482 367.907 237.557 367.693 237.664 367.544C237.749 367.373 237.866 367.288 238.016 367.288V371ZM251.052 371V348.376H255.308V371H251.052Z" fill="#7F2F5C"/>
</svg>
