<svg width="289" height="380" viewBox="0 0 289 380" fill="none" xmlns="http://www.w3.org/2000/svg">
<rect width="74.2719" height="75.086" transform="matrix(0.742234 -0.67014 0.742234 0.67014 157.414 148.757)" fill="#561D4E"/>
<rect width="74.2719" height="75.086" transform="matrix(0.742234 -0.67014 0.742234 0.67014 157.407 248.683)" fill="#561D4E"/>
<path d="M211.835 198.673L268.346 149.294L268.346 249.238L211.835 198.673Z" fill="#561D4E"/>
<rect width="74.3027" height="75.055" transform="matrix(-0.728772 0.684756 -0.755415 -0.655247 157.861 149.085)" fill="#561D4E"/>
<rect width="74.3027" height="75.055" transform="matrix(-0.728772 0.684756 -0.755415 -0.655247 155.928 49.1797)" fill="#561D4E"/>
<path d="M102.482 100.282L46.9409 150.795L45 50.8715L102.482 100.282Z" fill="#561D4E"/>
<path d="M114.872 371C113.059 371 111.566 370.712 110.392 370.136C109.219 369.56 108.344 368.685 107.768 367.512C107.214 366.339 106.936 364.856 106.936 363.064C106.936 361.272 107.214 359.779 107.768 358.584C108.344 357.368 109.219 356.461 110.392 355.864C111.566 355.245 113.059 354.936 114.872 354.936H122.104V368.984H117.816V357.72L118.872 358.648H114.872C113.998 358.648 113.294 358.755 112.76 358.968C112.227 359.16 111.832 359.576 111.576 360.216C111.342 360.835 111.224 361.784 111.224 363.064C111.224 364.28 111.331 365.197 111.544 365.816C111.779 366.413 112.163 366.808 112.696 367C113.23 367.192 113.955 367.288 114.872 367.288H125.464V371H114.872ZM125.464 371V367.288C125.592 367.288 125.688 367.331 125.752 367.416C125.838 367.501 125.902 367.629 125.944 367.8C126.008 367.971 126.051 368.173 126.072 368.408C126.094 368.621 126.104 368.867 126.104 369.144C126.104 369.421 126.094 369.677 126.072 369.912C126.051 370.147 126.008 370.349 125.944 370.52C125.902 370.669 125.838 370.787 125.752 370.872C125.688 370.957 125.592 371 125.464 371ZM110.104 351.992V348.344H114.232V351.992H110.104ZM115.928 351.992V348.344H120.056V351.992H115.928ZM142.045 371V367.288H145.437V371H142.045ZM125.469 371C125.341 371 125.245 370.957 125.181 370.872C125.095 370.787 125.031 370.669 124.989 370.52C124.925 370.349 124.882 370.147 124.861 369.912C124.839 369.677 124.829 369.421 124.829 369.144C124.829 368.76 124.85 368.44 124.893 368.184C124.935 367.907 125.01 367.693 125.117 367.544C125.202 367.373 125.319 367.288 125.469 367.288V371ZM125.469 371V367.288H139.229L137.789 368.472V362.552C137.789 361.272 137.383 360.301 136.573 359.64C135.783 358.979 134.525 358.648 132.797 358.648C132.306 358.648 131.634 358.691 130.781 358.776C129.927 358.84 128.999 358.947 127.997 359.096L127.581 355.704C128.498 355.491 129.426 355.309 130.365 355.16C131.325 355.011 132.263 354.936 133.181 354.936C134.93 354.936 136.466 355.245 137.789 355.864C139.111 356.461 140.146 357.325 140.893 358.456C141.661 359.587 142.045 360.952 142.045 362.552V371H125.469ZM145.437 371V367.288C145.543 367.288 145.639 367.331 145.725 367.416C145.81 367.501 145.874 367.629 145.917 367.8C145.959 367.971 145.991 368.173 146.013 368.408C146.055 368.621 146.077 368.867 146.077 369.144C146.077 369.421 146.055 369.677 146.013 369.912C145.991 370.147 145.959 370.349 145.917 370.52C145.874 370.669 145.81 370.787 145.725 370.872C145.639 370.957 145.543 371 145.437 371ZM131.645 377.816V374.168H135.933V377.816H131.645ZM145.438 371V367.288H162.046L160.094 368.952V363.064C160.094 361.912 159.966 361.016 159.71 360.376C159.454 359.715 159.006 359.256 158.366 359C157.747 358.723 156.883 358.584 155.774 358.584C154.899 358.584 154.035 358.648 153.182 358.776C152.35 358.883 151.699 359.032 151.23 359.224L153.885 356.728C153.758 357.219 153.63 357.837 153.502 358.584C153.395 359.331 153.299 360.131 153.214 360.984C153.128 361.816 153.086 362.637 153.086 363.448C153.086 364.195 153.118 364.973 153.182 365.784C153.267 366.595 153.352 367.309 153.438 367.928C153.544 368.547 153.63 368.973 153.694 369.208L149.63 370.328C149.544 370.029 149.438 369.539 149.31 368.856C149.182 368.173 149.064 367.363 148.958 366.424C148.872 365.485 148.83 364.493 148.83 363.448C148.83 362.381 148.883 361.357 148.99 360.376C149.096 359.373 149.214 358.477 149.342 357.688C149.491 356.877 149.63 356.227 149.758 355.736C150.27 355.544 151.07 355.352 152.158 355.16C153.246 354.968 154.451 354.872 155.774 354.872C157.694 354.872 159.283 355.139 160.542 355.672C161.822 356.205 162.771 357.069 163.39 358.264C164.03 359.459 164.35 361.069 164.35 363.096V371H145.438ZM145.438 371C145.309 371 145.213 370.957 145.149 370.872C145.064 370.787 145 370.669 144.957 370.52C144.893 370.349 144.851 370.147 144.829 369.912C144.808 369.677 144.797 369.421 144.797 369.144C144.797 368.76 144.819 368.44 144.861 368.184C144.904 367.907 144.979 367.693 145.085 367.544C145.171 367.373 145.288 367.288 145.438 367.288V371ZM181.506 371V354.936H185.794V369.368L183.298 367.288H189.154V371H181.506ZM174.786 361.848V358.104H181.506V361.848H174.786ZM167.81 378.936C167.532 378.936 167.234 378.925 166.914 378.904C166.594 378.883 166.263 378.851 165.922 378.808L166.082 375.16C166.423 375.181 166.743 375.203 167.042 375.224C167.362 375.245 167.596 375.256 167.746 375.256C168.578 375.256 169.239 374.925 169.73 374.264C170.242 373.603 170.498 372.675 170.498 371.48V354.936H174.786V371.48C174.786 372.931 174.487 374.221 173.89 375.352C173.314 376.483 172.503 377.357 171.458 377.976C170.412 378.616 169.196 378.936 167.81 378.936ZM189.154 371V367.288C189.282 367.288 189.388 367.331 189.474 367.416C189.559 367.501 189.623 367.629 189.666 367.8C189.708 367.971 189.74 368.173 189.762 368.408C189.783 368.621 189.794 368.867 189.794 369.144C189.794 369.421 189.783 369.677 189.762 369.912C189.74 370.147 189.708 370.349 189.666 370.52C189.623 370.669 189.559 370.787 189.474 370.872C189.388 370.957 189.282 371 189.154 371ZM181.506 377.816V374.168H185.794V377.816H181.506ZM192.772 371V348.376H197.06V371H192.772ZM189.156 371V367.288H192.772V371H189.156ZM189.156 371C189.028 371 188.932 370.957 188.868 370.872C188.783 370.787 188.719 370.669 188.676 370.52C188.612 370.349 188.57 370.147 188.548 369.912C188.527 369.677 188.516 369.421 188.516 369.144C188.516 368.76 188.538 368.44 188.58 368.184C188.623 367.907 188.698 367.693 188.804 367.544C188.89 367.373 189.007 367.288 189.156 367.288V371ZM202.193 371V348.376H206.449V371H202.193Z" fill="#561D4E"/>
</svg>
