<svg width="24" height="24" viewBox="0 0 24 24" fill="none" xmlns="http://www.w3.org/2000/svg">
<path d="M12 4.43164C12.7535 4.43167 13.4826 4.60236 14.1445 4.92285L14.4238 5.06934L14.4248 5.07031C14.7131 5.23846 14.983 5.44224 15.2344 5.68164L15.4805 5.93262L15.4814 5.93359C15.9612 6.47735 16.41 7.15351 16.5059 8.45996L16.5488 8.99316C16.5583 9.13868 16.564 9.28464 16.5664 9.42676C16.6611 9.39765 16.7821 9.36914 16.9062 9.36914C17.4627 9.3692 17.9172 9.65184 18.1787 10.0801L18.2793 10.2725L18.2812 10.2783L18.3242 10.4199C18.4058 10.7567 18.3607 11.1284 18.2158 11.4473L18.21 11.46L18.209 11.459C18.047 11.7182 17.8509 11.9486 17.5557 12.1455C17.4682 12.2038 17.3343 12.3033 17.1758 12.3984L17.1748 12.3975C17.1325 12.4334 17.076 12.4692 17.0312 12.4961C16.972 12.5316 16.9197 12.5647 16.8828 12.6016L16.8711 12.6133L16.8574 12.6211C16.8376 12.631 16.8253 12.639 16.8184 12.6445V12.666L16.7949 12.6885C16.7972 12.6841 16.7949 12.6842 16.7949 12.6953C16.7949 12.7114 16.7995 12.7394 16.8135 12.7812C16.8569 12.9113 16.9167 13.0257 16.9941 13.1377L17.0781 13.25L17.083 13.2568L17.2285 13.459C17.5871 13.9236 18.0837 14.3382 18.7002 14.6602C18.762 14.6911 18.8197 14.7202 18.9062 14.749L18.9053 14.75C18.9384 14.757 18.9649 14.7708 18.9814 14.7832C18.9973 14.7951 19.0119 14.81 19.0244 14.8223C19.2815 14.9527 19.4885 15.1242 19.5928 15.4316L19.6357 15.5664C19.7115 15.8858 19.6214 16.2407 19.3555 16.5361L19.3516 16.54L19.3506 16.5391C19.222 16.6676 19.0583 16.8019 18.9199 16.8711L18.9189 16.8701C18.6039 17.058 18.2593 17.1837 17.9434 17.249V17.25H17.9414L17.9404 17.251H17.9395V17.252H17.9375V17.2529H17.9355L17.9346 17.2539H17.9336V17.2549H17.9316V17.2559H17.9297L17.9287 17.2568H17.9277V17.2578H17.9258V17.2588H17.9238L17.9229 17.2598H17.9219V17.2607H17.9199V17.2617H17.918L17.917 17.2627H17.916V17.2637H17.9141V17.2646H17.9121L17.9111 17.2656H17.9102V17.2666H17.9082V17.2676H17.9062L17.9053 17.2686H17.9043V17.2695H17.9023V17.2705H17.9004L17.8994 17.2715H17.8984V17.2725H17.8965V17.2734H17.8945L17.8936 17.2744H17.8926V17.2754H17.8906V17.2764H17.8887L17.8877 17.2773H17.8867V17.2783H17.8848V17.2793H17.8828L17.8818 17.2803H17.8809V17.2812H17.8789V17.2822H17.877L17.876 17.2832H17.875V17.2842H17.873V17.2852H17.8711L17.8701 17.2861H17.8691V17.2871H17.8672V17.2881H17.8652L17.8643 17.2891H17.8633V17.29H17.8613V17.291H17.8594L17.8584 17.292H17.8574V17.293H17.8555V17.2939H17.8535L17.8525 17.2949H17.8516V17.2959H17.8496V17.2969H17.8477L17.8467 17.2979H17.8457V17.2988H17.8438V17.2998H17.8418L17.8408 17.3008H17.8398V17.3018H17.8379V17.3027H17.8359L17.835 17.3037H17.834V17.3047H17.832V17.3057H17.8301L17.8291 17.3066H17.8281V17.3076H17.8262V17.3086H17.8242L17.8232 17.3096H17.8223V17.3105H17.8203V17.3115H17.8184L17.8174 17.3125H17.8164V17.3135H17.8145V17.3145H17.8125L17.8115 17.3154H17.8105V17.3164H17.8086V17.3174H17.8066L17.8057 17.3184H17.8047V17.3193H17.8027V17.3203H17.8008L17.7998 17.3213H17.7988V17.3223H17.7969V17.3232H17.7949L17.7939 17.3242H17.793V17.3252H17.791V17.3262H17.7891L17.7881 17.3271H17.7871V17.3281H17.7852V17.3291H17.7832L17.7822 17.3301C17.7562 17.3593 17.7384 17.3942 17.7129 17.4561C17.6855 17.5225 17.6515 17.6092 17.583 17.7119L17.582 17.7109C17.5082 17.8518 17.3744 17.9846 17.2471 18.0801L17.2451 18.082C16.9051 18.32 16.5267 18.3194 16.1641 18.3496L16.1562 18.3506V18.3496C15.8204 18.3496 15.456 18.3801 15.0312 18.501C14.8591 18.5584 14.6835 18.6749 14.4932 18.8018L14.4883 18.8047C13.9543 19.1188 13.2157 19.5683 11.9688 19.5684C10.7553 19.5684 10.0172 19.1209 9.5127 18.8057L9.20508 18.626C9.11154 18.5735 9.02404 18.5301 8.93652 18.501V18.5C8.51222 18.3793 8.1481 18.3496 7.8125 18.3496H7.80371C7.44116 18.3194 7.06351 18.3199 6.72363 18.082V18.0811C6.58113 18.0046 6.47908 17.8678 6.41797 17.7764C6.33108 17.6546 6.29592 17.5489 6.26855 17.4707C6.24125 17.3927 6.22542 17.3591 6.19238 17.333H6.19141V17.332H6.18945L6.1875 17.3311V17.3301H6.18555V17.3291H6.18359L6.18164 17.3281V17.3271H6.17969V17.3262H6.17773L6.17578 17.3252V17.3242H6.17383V17.3232H6.17188L6.16992 17.3223V17.3213H6.16797V17.3203H6.16602L6.16406 17.3193V17.3184H6.16211V17.3174H6.16016L6.1582 17.3164V17.3154H6.15625V17.3145H6.1543L6.15234 17.3135V17.3125H6.15039V17.3115H6.14844L6.14648 17.3105V17.3096H6.14453V17.3086H6.14258L6.14062 17.3076V17.3066H6.13867V17.3057H6.13672L6.13477 17.3047V17.3037H6.13281V17.3027H6.13086L6.12891 17.3018V17.3008H6.12695V17.2998H6.125L6.12305 17.2988V17.2979H6.12109V17.2969H6.11914L6.11719 17.2959V17.2949H6.11523V17.2939H6.11328L6.11133 17.293V17.292H6.10938V17.291H6.10742L6.10547 17.29V17.2891H6.10352V17.2881H6.10156L6.09961 17.2871V17.2861H6.09766V17.2852H6.0957L6.09375 17.2842V17.2832H6.0918V17.2822H6.08984L6.08789 17.2812V17.2803H6.08594V17.2793H6.08398L6.08203 17.2783V17.2773H6.08008V17.2764H6.07812L6.07617 17.2754V17.2744H6.07422V17.2734H6.07227L6.07031 17.2725V17.2715H6.06836V17.2705H6.06641L6.06445 17.2695V17.2686H6.0625V17.2676H6.06055L6.05859 17.2666V17.2656H6.05664V17.2646H6.05469L6.05273 17.2637V17.2627H6.05078V17.2617H6.04883L6.04688 17.2607V17.2598H6.04492V17.2588H6.04297L6.04102 17.2578V17.2568H6.03906V17.2559H6.03711L6.03516 17.2549V17.2539H6.0332V17.2529H6.03125V17.252H6.0293V17.251C5.67527 17.1837 5.35464 17.024 5.04883 16.8711C4.91206 16.8027 4.77814 16.701 4.64746 16.5703C4.30808 16.2307 4.23711 15.8155 4.375 15.4355H4.37402C4.5471 14.9509 4.97305 14.8074 5.33008 14.6289C6.00229 14.2617 6.51789 13.805 6.88184 13.2607C6.97479 13.1058 7.06534 12.9537 7.15625 12.7725C7.16943 12.7319 7.17285 12.7161 7.17285 12.707C7.17285 12.7024 7.17196 12.6964 7.16211 12.6758C7.15658 12.6692 7.15062 12.6636 7.14648 12.6582C7.13736 12.6462 7.13225 12.6388 7.12598 12.6309H7.12305L7.0957 12.6113C7.03687 12.5672 6.97791 12.5302 6.92188 12.4941C6.87498 12.464 6.82581 12.4306 6.78711 12.3955C6.63078 12.3013 6.49965 12.2032 6.41309 12.1455C6.11768 11.9485 5.92085 11.7183 5.75879 11.459L5.75195 11.4482L5.84375 11.4062L5.75293 11.4473C5.58735 11.0829 5.55245 10.6497 5.6875 10.2783L5.68945 10.2725C5.92303 9.73858 6.42635 9.36914 7.0625 9.36914C7.18634 9.36917 7.30678 9.39773 7.40137 9.42676C7.40674 9.10773 7.43476 8.76941 7.46289 8.45996C7.55879 7.15348 8.00751 6.47736 8.4873 5.93359L8.48828 5.93262C8.76748 5.62551 9.07226 5.36595 9.42383 5.15527L9.57715 5.06836C10.2803 4.65365 11.1096 4.43164 12 4.43164ZM8.50586 10.5C8.50586 10.5648 8.49931 10.6409 8.45508 10.7002C8.40478 10.7673 8.3276 10.7871 8.25 10.7871H8.17285L8.16016 10.7832C8.04363 10.7499 7.89427 10.6844 7.73926 10.6201C7.58283 10.5553 7.41181 10.4883 7.23535 10.4434H7.0625C6.96084 10.4434 6.87718 10.4589 6.81543 10.4912C6.7579 10.5215 6.71316 10.5694 6.68945 10.6523L6.68555 10.666L6.59375 10.625L6.68457 10.666C6.6349 10.7781 6.64137 10.8787 6.69336 10.9766C6.73454 11.0541 6.80631 11.133 6.90918 11.2119L7.02246 11.291L7.02637 11.2939C7.13438 11.3711 7.36666 11.5253 7.59863 11.6826C7.82684 11.8373 8.05851 11.9969 8.15723 12.0791L8.16504 12.085L8.16406 12.0859C8.252 12.1739 8.3035 12.2603 8.32422 12.3535C8.3444 12.4446 8.33275 12.5315 8.31641 12.6133L8.31543 12.6182C8.28076 12.7571 7.89394 14.5344 5.52148 15.6777C5.4849 15.7048 5.45878 15.7223 5.42773 15.748C5.39714 15.7734 5.38642 15.7895 5.38379 15.7969C5.38335 15.7982 5.38368 15.7985 5.38379 15.7988C5.38409 15.8001 5.38588 15.8074 5.39648 15.8203C5.40791 15.8342 5.42625 15.8518 5.45508 15.8721L5.57617 15.9414L5.58301 15.9453H5.58203C5.8837 16.1263 6.14056 16.2093 6.36621 16.2705C6.53154 16.3153 6.69254 16.3508 6.84082 16.4082L6.98535 16.4746L6.99316 16.4785V16.4795C7.17352 16.6 7.20796 16.7907 7.22754 16.9355C7.2381 17.0137 7.24458 17.0753 7.25879 17.1309C7.27121 17.1794 7.28754 17.2093 7.30859 17.2295C7.34929 17.2527 7.41902 17.2695 7.53418 17.2783C7.65199 17.2874 7.79368 17.2889 7.96777 17.2949C8.31119 17.3068 8.75173 17.3386 9.24902 17.499H9.25098C9.46383 17.5727 9.65487 17.6771 9.84082 17.7881C10.0293 17.9006 10.2084 18.0169 10.4111 18.127C10.8098 18.3433 11.2857 18.5254 12 18.5254C12.6983 18.5254 13.1666 18.3434 13.5615 18.127C13.7625 18.0168 13.9398 17.9007 14.1279 17.7881C14.3134 17.6771 14.504 17.5727 14.7168 17.499H14.7188C15.2159 17.3386 15.6566 17.3068 16 17.2949C16.174 17.2889 16.3158 17.2874 16.4336 17.2783C16.5477 17.2695 16.6173 17.2524 16.6582 17.2295C16.6797 17.2093 16.6974 17.1797 16.71 17.1309C16.7241 17.0758 16.7297 17.0156 16.7402 16.9395C16.7597 16.7993 16.7951 16.6099 16.9824 16.5059C17.1682 16.3892 17.3797 16.339 17.6006 16.2754C17.8275 16.21 18.084 16.1263 18.3857 15.9453L18.3926 15.9414L18.5127 15.8721C18.5418 15.8516 18.5608 15.8343 18.5723 15.8203C18.5828 15.8075 18.5847 15.8001 18.585 15.7988C18.585 15.7985 18.5854 15.7981 18.585 15.7969C18.5824 15.7895 18.5709 15.7736 18.54 15.748C18.5088 15.7222 18.4823 15.7052 18.4453 15.6777C16.0732 14.534 15.6868 12.756 15.6523 12.6182L15.6514 12.6133C15.6349 12.5308 15.6247 12.4447 15.6445 12.3506C15.6645 12.2559 15.7127 12.1627 15.7979 12.0605L15.8037 12.0537L15.8105 12.0479C15.9102 11.9648 16.1434 11.8127 16.3711 11.666C16.6035 11.5163 16.8345 11.3703 16.9414 11.2939L17.0566 11.2051C17.1614 11.1185 17.2329 11.039 17.2744 10.9609C17.3258 10.8643 17.3348 10.7623 17.2822 10.6309L17.2793 10.625V10.624C17.2381 10.5028 17.1142 10.4434 16.9062 10.4434H16.7334C16.5565 10.4884 16.3858 10.5545 16.2275 10.6162C16.0832 10.6726 15.9407 10.7271 15.8223 10.749C15.7684 10.7869 15.7154 10.7871 15.6875 10.7871C15.6149 10.7871 15.5469 10.7606 15.5049 10.6934C15.4697 10.637 15.4619 10.566 15.4619 10.5V10.4922H15.4629C15.4939 10.0892 15.5247 9.28274 15.4629 8.54004V8.53711C15.4323 8.03201 15.3327 7.66154 15.1943 7.36621C15.056 7.07106 14.8762 6.84562 14.6768 6.63086L14.6738 6.62793C14.496 6.42049 13.6464 5.50593 11.9688 5.50586C10.3227 5.50586 9.47318 6.41997 9.29492 6.62793L9.29199 6.63086C9.09256 6.84564 8.91274 7.07105 8.77441 7.36621C8.6361 7.66153 8.53649 8.03202 8.50586 8.53711V8.54395L8.40625 8.53125L8.50488 8.54395C8.41263 9.28237 8.47454 10.0851 8.50586 10.4922L8.50684 10.5H8.50586Z" fill="#953F55" stroke="#953F55" stroke-width="0.2"/>
</svg>
