<svg width="118" height="15" viewBox="0 0 118 15" fill="none" xmlns="http://www.w3.org/2000/svg">
<path d="M7.31206 14.864C6.09606 14.864 5.02939 14.7413 4.11206 14.496C3.19472 14.2613 2.43206 13.856 1.82406 13.28C1.21606 12.7147 0.757389 11.952 0.448056 10.992C0.149389 10.032 5.56707e-05 8.83732 5.56707e-05 7.40798C5.56707e-05 6.08532 0.160056 4.95465 0.480056 4.01598C0.810722 3.06665 1.29072 2.29865 1.92006 1.71198C2.54939 1.12532 3.31739 0.693317 4.22406 0.415984C5.13072 0.138651 6.16539 -1.62125e-05 7.32806 -1.62125e-05C8.94939 -1.62125e-05 10.2721 0.245317 11.2961 0.735984C12.3201 1.21598 13.0721 1.95198 13.5521 2.94398C14.0427 3.93598 14.2881 5.18398 14.2881 6.68798V6.89598C14.2881 7.70665 14.2454 8.39465 14.1601 8.95998C14.0747 9.51465 13.9521 9.96798 13.7921 10.32C13.6321 10.672 13.4347 10.9493 13.2001 11.152C12.9654 11.344 12.6934 11.4773 12.3841 11.552C12.0747 11.6267 11.7387 11.664 11.3761 11.664C10.9814 11.664 10.6454 11.616 10.3681 11.52C10.1014 11.4133 9.88806 11.2907 9.72806 11.152C9.56806 11.0027 9.45606 10.8587 9.39206 10.72C9.17872 10.848 8.91206 10.9867 8.59206 11.136C8.28272 11.2853 7.95739 11.408 7.61606 11.504C7.28539 11.6 6.97072 11.648 6.67206 11.648C6.37339 11.648 6.08006 11.6213 5.79206 11.568C5.50406 11.504 5.23739 11.392 4.99206 11.232C4.75739 11.0613 4.54939 10.8267 4.36806 10.528C4.18672 10.2293 4.04272 9.84532 3.93606 9.37598C3.84006 8.90665 3.79206 8.33065 3.79206 7.64798C3.79206 6.74132 3.88806 5.98398 4.08006 5.37598C4.27206 4.75732 4.60272 4.29332 5.07206 3.98398C5.54139 3.66398 6.18139 3.50398 6.99206 3.50398C7.28006 3.50398 7.60006 3.55198 7.95206 3.64798C8.31472 3.74398 8.60272 3.83998 8.81606 3.93598V3.66398H10.3201V6.71998C10.3201 7.56265 10.3307 8.23465 10.3521 8.73598C10.3734 9.22665 10.4161 9.59465 10.4801 9.83998C10.5547 10.0853 10.6721 10.2507 10.8321 10.336C10.9921 10.4107 11.2001 10.448 11.4561 10.448C11.6801 10.448 11.8774 10.4107 12.0481 10.336C12.2294 10.2613 12.3787 10.112 12.4961 9.88798C12.6241 9.65332 12.7201 9.29598 12.7841 8.81598C12.8481 8.33598 12.8801 7.69598 12.8801 6.89598V6.67198C12.8801 5.71198 12.7734 4.89065 12.5601 4.20798C12.3574 3.52532 12.0321 2.96532 11.5841 2.52798C11.1467 2.09065 10.5761 1.77065 9.87206 1.56798C9.17872 1.35465 8.33072 1.24798 7.32806 1.24798C6.33606 1.24798 5.46672 1.36532 4.72006 1.59998C3.98406 1.82398 3.36539 2.18665 2.86406 2.68798C2.36272 3.17865 1.98939 3.81332 1.74406 4.59198C1.49872 5.35998 1.37606 6.29865 1.37606 7.40798C1.37606 8.58132 1.48806 9.56265 1.71206 10.352C1.94672 11.1413 2.30406 11.776 2.78406 12.256C3.26406 12.7467 3.87739 13.0933 4.62406 13.296C5.38139 13.5093 6.27739 13.616 7.31206 13.616C7.48272 13.616 7.70139 13.6053 7.96806 13.584C8.24539 13.5733 8.52806 13.5573 8.81606 13.536C9.11472 13.5147 9.37606 13.4933 9.60006 13.472L9.64806 14.72C9.43472 14.7413 9.18406 14.7627 8.89606 14.784C8.60806 14.8053 8.32006 14.8213 8.03206 14.832C7.75472 14.8533 7.51472 14.864 7.31206 14.864ZM6.81606 10.368C7.01872 10.368 7.24806 10.336 7.50406 10.272C7.77072 10.1973 8.03206 10.112 8.28806 10.016C8.54406 9.90932 8.76806 9.80798 8.96006 9.71198C8.93872 9.48798 8.91206 9.23732 8.88006 8.95998C8.85872 8.67198 8.84272 8.37332 8.83206 8.06398C8.82139 7.74398 8.81606 7.43465 8.81606 7.13598V5.08798C8.63472 5.02398 8.39472 4.95998 8.09606 4.89598C7.80806 4.83198 7.55206 4.79998 7.32806 4.79998C6.77339 4.79998 6.34672 4.90665 6.04806 5.11998C5.76006 5.32265 5.55739 5.63732 5.44006 6.06398C5.33339 6.49065 5.28006 7.01865 5.28006 7.64798C5.28006 8.22398 5.32272 8.68798 5.40806 9.03998C5.50406 9.39198 5.62139 9.66932 5.76006 9.87198C5.90939 10.064 6.07472 10.1973 6.25606 10.272C6.43739 10.336 6.62406 10.368 6.81606 10.368ZM18.6152 11.744C18.3378 11.744 18.0178 11.728 17.6552 11.696C17.3032 11.664 16.9512 11.6267 16.5992 11.584C16.2578 11.5307 15.9592 11.4773 15.7032 11.424L15.7672 10.224C16.0338 10.256 16.3378 10.2933 16.6792 10.336C17.0205 10.3787 17.3512 10.416 17.6712 10.448C18.0018 10.4693 18.2632 10.48 18.4552 10.48C18.8605 10.48 19.1965 10.4427 19.4632 10.368C19.7298 10.2933 19.9325 10.1707 20.0712 9.99998C20.2098 9.81865 20.2792 9.57332 20.2792 9.26398C20.2792 9.01865 20.2258 8.83198 20.1192 8.70398C20.0125 8.56532 19.8152 8.45332 19.5272 8.36798C19.2392 8.27198 18.8178 8.18132 18.2632 8.09598C17.6658 7.99998 17.1698 7.88265 16.7752 7.74398C16.3805 7.59465 16.0872 7.37065 15.8952 7.07198C15.7032 6.77332 15.6072 6.35732 15.6072 5.82398C15.6072 5.20532 15.7458 4.72532 16.0232 4.38398C16.3112 4.03198 16.6792 3.78132 17.1272 3.63198C17.5858 3.48265 18.0658 3.40798 18.5672 3.40798C18.8872 3.40798 19.2285 3.42398 19.5912 3.45598C19.9645 3.48798 20.3218 3.53065 20.6632 3.58398C21.0045 3.63732 21.2978 3.68532 21.5432 3.72798L21.4952 4.94398C21.2392 4.90132 20.9405 4.86398 20.5992 4.83198C20.2578 4.78932 19.9165 4.75732 19.5752 4.73598C19.2338 4.71465 18.9352 4.70398 18.6792 4.70398C18.3805 4.70398 18.1085 4.73598 17.8632 4.79998C17.6285 4.85332 17.4418 4.95998 17.3032 5.11998C17.1752 5.26932 17.1112 5.48798 17.1112 5.77598C17.1112 5.98932 17.1592 6.15998 17.2552 6.28798C17.3512 6.41598 17.5432 6.52798 17.8312 6.62398C18.1192 6.70932 18.5298 6.79465 19.0632 6.87998C19.7245 6.98665 20.2525 7.11998 20.6472 7.27998C21.0418 7.43998 21.3298 7.66932 21.5112 7.96798C21.6925 8.26665 21.7832 8.67732 21.7832 9.19998C21.7832 9.82932 21.6552 10.3307 21.3992 10.704C21.1538 11.0773 20.7965 11.344 20.3272 11.504C19.8578 11.664 19.2872 11.744 18.6152 11.744ZM26.6756 11.744C25.7796 11.744 25.0756 11.5947 24.5636 11.296C24.0516 10.9867 23.6889 10.5173 23.4756 9.88798C23.2622 9.25865 23.1556 8.45865 23.1556 7.48798C23.1556 6.55998 23.2676 5.79732 23.4916 5.19998C23.7262 4.60265 24.0996 4.15465 24.6116 3.85598C25.1342 3.55732 25.8222 3.40798 26.6756 3.40798C27.5396 3.40798 28.2276 3.55732 28.7396 3.85598C29.2516 4.15465 29.6196 4.60265 29.8436 5.19998C30.0782 5.79732 30.1956 6.55998 30.1956 7.48798C30.1956 8.45865 30.0889 9.25865 29.8756 9.88798C29.6729 10.5173 29.3156 10.9867 28.8036 11.296C28.2916 11.5947 27.5822 11.744 26.6756 11.744ZM26.6756 10.48C27.2409 10.48 27.6676 10.3787 27.9556 10.176C28.2436 9.97332 28.4356 9.65332 28.5316 9.21598C28.6276 8.76798 28.6756 8.19198 28.6756 7.48798C28.6756 6.79465 28.6169 6.24532 28.4996 5.83998C28.3822 5.42398 28.1796 5.12532 27.8916 4.94398C27.6036 4.76265 27.1982 4.67198 26.6756 4.67198C26.1636 4.67198 25.7582 4.76265 25.4596 4.94398C25.1716 5.12532 24.9689 5.42398 24.8516 5.83998C24.7342 6.24532 24.6756 6.79465 24.6756 7.48798C24.6756 8.19198 24.7236 8.76798 24.8196 9.21598C24.9156 9.65332 25.1022 9.97332 25.3796 10.176C25.6676 10.3787 26.0996 10.48 26.6756 10.48ZM32.1188 11.584V0.159984H33.5908V11.584H32.1188ZM38.3153 11.744C37.622 11.744 37.0886 11.6053 36.7153 11.328C36.3526 11.04 36.102 10.6027 35.9633 10.016C35.8246 9.42932 35.7553 8.67198 35.7553 7.74398V3.56798H37.2433V7.72798C37.2433 8.38932 37.2753 8.91732 37.3393 9.31198C37.4033 9.70665 37.542 9.98932 37.7553 10.16C37.9793 10.3307 38.31 10.416 38.7473 10.416C39.174 10.416 39.5633 10.3573 39.9153 10.24C40.278 10.1227 40.5713 10.0107 40.7953 9.90398V3.56798H42.2673V11.584H40.7953V11.04C40.454 11.232 40.086 11.3973 39.6913 11.536C39.3073 11.6747 38.8486 11.744 38.3153 11.744ZM47.1171 11.76C46.5517 11.76 46.0984 11.6747 45.7571 11.504C45.4264 11.3333 45.1864 11.04 45.0371 10.624C44.8984 10.1973 44.8291 9.59998 44.8291 8.83198V4.83198H43.7411V3.56798H44.8291V1.21598H46.3011V3.56798H48.6851V4.83198H46.3011V8.41598C46.3011 8.93865 46.3224 9.34932 46.3651 9.64798C46.4184 9.93598 46.5197 10.1387 46.6691 10.256C46.8184 10.3733 47.0531 10.432 47.3731 10.432C47.4797 10.432 47.6131 10.432 47.7731 10.432C47.9331 10.4213 48.0984 10.4107 48.2691 10.4C48.4397 10.3787 48.5891 10.3627 48.7171 10.352L48.7971 11.568C48.6371 11.6 48.4504 11.6267 48.2371 11.648C48.0344 11.68 47.8317 11.7067 47.6291 11.728C47.4264 11.7493 47.2557 11.76 47.1171 11.76ZM50.0697 11.584V3.56798H51.5577V11.584H50.0697ZM50.0697 1.95198V0.399983H51.5577V1.95198H50.0697ZM56.8787 11.744C55.9827 11.744 55.2787 11.5947 54.7667 11.296C54.2547 10.9867 53.892 10.5173 53.6787 9.88798C53.4653 9.25865 53.3587 8.45865 53.3587 7.48798C53.3587 6.55998 53.4707 5.79732 53.6947 5.19998C53.9293 4.60265 54.3027 4.15465 54.8147 3.85598C55.3373 3.55732 56.0253 3.40798 56.8787 3.40798C57.7427 3.40798 58.4307 3.55732 58.9427 3.85598C59.4547 4.15465 59.8227 4.60265 60.0467 5.19998C60.2813 5.79732 60.3987 6.55998 60.3987 7.48798C60.3987 8.45865 60.292 9.25865 60.0787 9.88798C59.876 10.5173 59.5187 10.9867 59.0067 11.296C58.4947 11.5947 57.7853 11.744 56.8787 11.744ZM56.8787 10.48C57.444 10.48 57.8707 10.3787 58.1587 10.176C58.4467 9.97332 58.6387 9.65332 58.7347 9.21598C58.8307 8.76798 58.8787 8.19198 58.8787 7.48798C58.8787 6.79465 58.82 6.24532 58.7027 5.83998C58.5853 5.42398 58.3827 5.12532 58.0947 4.94398C57.8067 4.76265 57.4013 4.67198 56.8787 4.67198C56.3667 4.67198 55.9613 4.76265 55.6627 4.94398C55.3747 5.12532 55.172 5.42398 55.0547 5.83998C54.9373 6.24532 54.8787 6.79465 54.8787 7.48798C54.8787 8.19198 54.9267 8.76798 55.0227 9.21598C55.1187 9.65332 55.3053 9.97332 55.5827 10.176C55.8707 10.3787 56.3027 10.48 56.8787 10.48ZM62.2259 11.584V3.56798H63.7139V4.12798C63.8846 4.02132 64.1033 3.91465 64.3699 3.80798C64.6366 3.70132 64.9193 3.61065 65.2179 3.53598C65.5166 3.45065 65.8046 3.40798 66.0819 3.40798C66.6366 3.40798 67.0899 3.48265 67.4419 3.63198C67.8046 3.77065 68.0873 3.99998 68.2899 4.31998C68.4926 4.62932 68.6366 5.03465 68.7219 5.53598C68.8073 6.03732 68.8499 6.64532 68.8499 7.35998V11.584H67.3459V7.43998C67.3459 6.77865 67.3086 6.25065 67.2339 5.85598C67.1593 5.46132 67.0099 5.17865 66.7859 5.00798C66.5619 4.82665 66.2259 4.73598 65.7779 4.73598C65.5326 4.73598 65.2766 4.76265 65.0099 4.81598C64.7539 4.86932 64.5086 4.93865 64.2739 5.02398C64.0499 5.10932 63.8633 5.18932 63.7139 5.26398V11.584H62.2259ZM73.9538 11.744C73.0898 11.744 72.4125 11.6053 71.9218 11.328C71.4311 11.04 71.0845 10.5813 70.8818 9.95198C70.6791 9.32265 70.5778 8.49598 70.5778 7.47198C70.5778 6.47998 70.6898 5.69065 70.9138 5.10398C71.1378 4.50665 71.5005 4.07465 72.0018 3.80798C72.5031 3.54132 73.1591 3.40798 73.9698 3.40798C74.1618 3.40798 74.3911 3.42398 74.6578 3.45598C74.9351 3.47732 75.2125 3.50932 75.4898 3.55198C75.7778 3.59465 76.0231 3.63198 76.2258 3.66398L76.1778 4.87998C75.9965 4.85865 75.7831 4.83732 75.5378 4.81598C75.2925 4.79465 75.0578 4.77865 74.8338 4.76798C74.6098 4.74665 74.4231 4.73598 74.2738 4.73598C73.6978 4.73598 73.2498 4.82665 72.9298 5.00798C72.6205 5.18932 72.4018 5.47732 72.2738 5.87198C72.1565 6.26665 72.0978 6.79998 72.0978 7.47198C72.0978 8.19732 72.1511 8.77865 72.2578 9.21598C72.3751 9.64265 72.5885 9.95198 72.8978 10.144C73.2071 10.3253 73.6658 10.416 74.2738 10.416C74.4231 10.416 74.6098 10.4107 74.8338 10.4C75.0685 10.3787 75.3085 10.3573 75.5538 10.336C75.8098 10.3147 76.0285 10.2987 76.2098 10.288L76.2578 11.504C76.0445 11.536 75.7938 11.568 75.5058 11.6C75.2285 11.6427 74.9511 11.6747 74.6738 11.696C74.3965 11.728 74.1565 11.744 73.9538 11.744ZM81.0506 11.744C80.1546 11.744 79.4506 11.5947 78.9386 11.296C78.4266 10.9867 78.0639 10.5173 77.8506 9.88798C77.6372 9.25865 77.5306 8.45865 77.5306 7.48798C77.5306 6.55998 77.6426 5.79732 77.8666 5.19998C78.1012 4.60265 78.4746 4.15465 78.9866 3.85598C79.5092 3.55732 80.1972 3.40798 81.0506 3.40798C81.9146 3.40798 82.6026 3.55732 83.1146 3.85598C83.6266 4.15465 83.9946 4.60265 84.2186 5.19998C84.4532 5.79732 84.5706 6.55998 84.5706 7.48798C84.5706 8.45865 84.4639 9.25865 84.2506 9.88798C84.0479 10.5173 83.6906 10.9867 83.1786 11.296C82.6666 11.5947 81.9572 11.744 81.0506 11.744ZM81.0506 10.48C81.6159 10.48 82.0426 10.3787 82.3306 10.176C82.6186 9.97332 82.8106 9.65332 82.9066 9.21598C83.0026 8.76798 83.0506 8.19198 83.0506 7.48798C83.0506 6.79465 82.9919 6.24532 82.8746 5.83998C82.7572 5.42398 82.5546 5.12532 82.2666 4.94398C81.9786 4.76265 81.5732 4.67198 81.0506 4.67198C80.5386 4.67198 80.1332 4.76265 79.8346 4.94398C79.5466 5.12532 79.3439 5.42398 79.2266 5.83998C79.1092 6.24532 79.0506 6.79465 79.0506 7.48798C79.0506 8.19198 79.0986 8.76798 79.1946 9.21598C79.2906 9.65332 79.4772 9.97332 79.7546 10.176C80.0426 10.3787 80.4746 10.48 81.0506 10.48ZM86.3978 11.584V3.56798H87.8858V4.60798C88.0778 4.46932 88.3231 4.31998 88.6218 4.15998C88.9205 3.99998 89.2458 3.85065 89.5978 3.71198C89.9605 3.56265 90.3178 3.45598 90.6698 3.39198V4.87998C90.3285 4.94398 89.9765 5.03465 89.6138 5.15198C89.2618 5.26932 88.9311 5.39732 88.6218 5.53598C88.3231 5.66398 88.0778 5.78132 87.8858 5.88798V11.584H86.3978ZM94.7793 11.744C93.958 11.744 93.3073 11.5947 92.8273 11.296C92.358 10.9867 92.0166 10.528 91.8033 9.91998C91.59 9.31198 91.4833 8.54932 91.4833 7.63198C91.4833 6.62932 91.622 5.81865 91.8993 5.19998C92.1873 4.58132 92.5873 4.12798 93.0993 3.83998C93.6113 3.55198 94.2246 3.40798 94.9393 3.40798C96.038 3.40798 96.8646 3.70665 97.4193 4.30398C97.9846 4.89065 98.2673 5.83998 98.2673 7.15198L98.1873 8.15998H93.0033C93.014 8.92798 93.158 9.50932 93.4353 9.90398C93.7126 10.288 94.214 10.48 94.9393 10.48C95.2486 10.48 95.5846 10.4747 95.9473 10.464C96.3206 10.4427 96.6886 10.4213 97.0513 10.4C97.414 10.3787 97.7233 10.3573 97.9793 10.336L98.0113 11.456C97.7446 11.4987 97.4246 11.5413 97.0513 11.584C96.678 11.6373 96.2886 11.6747 95.8833 11.696C95.4886 11.728 95.1206 11.744 94.7793 11.744ZM93.0033 7.05598H96.7793C96.7793 6.14932 96.63 5.51465 96.3313 5.15198C96.0433 4.78932 95.5793 4.60798 94.9393 4.60798C94.5233 4.60798 94.1713 4.68798 93.8833 4.84798C93.5953 5.00798 93.3766 5.26932 93.2273 5.63198C93.078 5.98398 93.0033 6.45865 93.0033 7.05598ZM99.9276 11.584V9.56798H101.528V11.584H99.9276ZM106.193 11.744C105.916 11.744 105.596 11.728 105.233 11.696C104.881 11.664 104.529 11.6267 104.177 11.584C103.836 11.5307 103.537 11.4773 103.281 11.424L103.345 10.224C103.612 10.256 103.916 10.2933 104.257 10.336C104.599 10.3787 104.929 10.416 105.249 10.448C105.58 10.4693 105.841 10.48 106.033 10.48C106.439 10.48 106.775 10.4427 107.041 10.368C107.308 10.2933 107.511 10.1707 107.649 9.99998C107.788 9.81865 107.857 9.57332 107.857 9.26398C107.857 9.01865 107.804 8.83198 107.697 8.70398C107.591 8.56532 107.393 8.45332 107.105 8.36798C106.817 8.27198 106.396 8.18132 105.841 8.09598C105.244 7.99998 104.748 7.88265 104.353 7.74398C103.959 7.59465 103.665 7.37065 103.473 7.07198C103.281 6.77332 103.185 6.35732 103.185 5.82398C103.185 5.20532 103.324 4.72532 103.601 4.38398C103.889 4.03198 104.257 3.78132 104.705 3.63198C105.164 3.48265 105.644 3.40798 106.145 3.40798C106.465 3.40798 106.807 3.42398 107.169 3.45598C107.543 3.48798 107.9 3.53065 108.241 3.58398C108.583 3.63732 108.876 3.68532 109.121 3.72798L109.073 4.94398C108.817 4.90132 108.519 4.86398 108.177 4.83198C107.836 4.78932 107.495 4.75732 107.153 4.73598C106.812 4.71465 106.513 4.70398 106.257 4.70398C105.959 4.70398 105.687 4.73598 105.441 4.79998C105.207 4.85332 105.02 4.95998 104.881 5.11998C104.753 5.26932 104.689 5.48798 104.689 5.77598C104.689 5.98932 104.737 6.15998 104.833 6.28798C104.929 6.41598 105.121 6.52798 105.409 6.62398C105.697 6.70932 106.108 6.79465 106.641 6.87998C107.303 6.98665 107.831 7.11998 108.225 7.27998C108.62 7.43998 108.908 7.66932 109.089 7.96798C109.271 8.26665 109.361 8.67732 109.361 9.19998C109.361 9.82932 109.233 10.3307 108.977 10.704C108.732 11.0773 108.375 11.344 107.905 11.504C107.436 11.664 106.865 11.744 106.193 11.744ZM112.91 11.744C112.152 11.744 111.576 11.536 111.182 11.12C110.787 10.704 110.59 10.0907 110.59 9.27998C110.59 8.73598 110.686 8.29865 110.878 7.96798C111.07 7.62665 111.352 7.37065 111.726 7.19998C112.11 7.02932 112.584 6.92798 113.15 6.89598L115.47 6.67198V6.04798C115.47 5.54665 115.358 5.19465 115.134 4.99198C114.91 4.77865 114.574 4.67198 114.126 4.67198C113.848 4.67198 113.523 4.68265 113.15 4.70398C112.776 4.72532 112.408 4.75198 112.046 4.78398C111.683 4.81598 111.358 4.84798 111.07 4.87998L111.006 3.79198C111.272 3.72798 111.587 3.66932 111.95 3.61598C112.323 3.56265 112.712 3.51465 113.118 3.47198C113.523 3.42932 113.896 3.40798 114.238 3.40798C114.867 3.40798 115.384 3.49865 115.79 3.67998C116.195 3.86132 116.494 4.14398 116.686 4.52798C116.878 4.91198 116.974 5.40798 116.974 6.01598V9.95198C116.995 10.1653 117.08 10.3253 117.23 10.432C117.39 10.528 117.587 10.592 117.822 10.624L117.774 11.728C117.624 11.728 117.475 11.7227 117.326 11.712C117.176 11.712 117.038 11.7013 116.91 11.68C116.782 11.6587 116.659 11.632 116.542 11.6C116.371 11.5573 116.216 11.4987 116.078 11.424C115.95 11.3387 115.827 11.2427 115.71 11.136C115.518 11.2213 115.267 11.312 114.958 11.408C114.648 11.504 114.318 11.584 113.966 11.648C113.614 11.712 113.262 11.744 112.91 11.744ZM113.214 10.56C113.48 10.56 113.752 10.5333 114.03 10.48C114.318 10.4267 114.59 10.368 114.846 10.304C115.102 10.2293 115.31 10.1653 115.47 10.112V7.71198L113.342 7.91998C112.894 7.95198 112.574 8.07998 112.382 8.30398C112.19 8.51732 112.094 8.82665 112.094 9.23198C112.094 9.64798 112.184 9.97332 112.366 10.208C112.558 10.4427 112.84 10.56 113.214 10.56Z" fill="#953F55"/>
</svg>
