<svg width="36" height="40" viewBox="0 0 36 40" fill="none" xmlns="http://www.w3.org/2000/svg">
<path d="M0.830729 20.8668C1.11703 20.964 1.41583 21.016 1.70997 21.0767C3.77824 21.5088 5.8152 22.0744 7.82856 22.7633C11.8024 24.1218 14.3304 26.9882 15.5276 31.4021C16.1596 33.7323 16.6665 36.0869 17.0795 38.4726C17.1875 39.1007 17.2595 39.8346 18.0699 39.9786C18.7801 39.7531 18.849 39.0486 18.9507 38.4066C19.3387 35.9654 19.891 33.5708 20.5527 31.2025C21.7683 26.8543 24.3278 24.0783 28.2545 22.7528C30.3541 22.0431 32.4755 21.4741 34.6266 21.0178C35.1977 20.8963 35.9627 20.8547 35.9987 20.0027C36.0362 19.1074 35.2524 19.0935 34.6908 18.9391C34.0666 18.7673 33.4235 18.6806 32.7962 18.521C29.9895 17.8113 27.1642 17.1346 24.7107 15.3441C22.0166 13.3782 20.8714 10.3053 20.0908 7.02943C19.6199 5.05318 19.2726 3.04046 18.8549 1.04675C18.7454 0.526218 18.5842 -0.0185695 17.9772 0.000485865C17.4453 0.0178365 17.2904 0.527951 17.1887 0.989499C17.0056 1.82061 16.8805 2.66904 16.7146 3.50538C16.0779 6.71877 15.4427 9.94601 13.7312 12.7204C11.9993 15.5277 9.34277 16.7145 6.53119 17.6166C4.67258 18.2135 2.77641 18.6125 0.8864 19.0567C0.460858 19.1573 0.0228202 19.3447 0.000912317 19.9347C-0.0225552 20.5385 0.410794 20.7241 0.830088 20.8664L0.830729 20.8668Z" fill="#F5A475"/>
</svg>
