<svg width="52" height="55" viewBox="0 0 52 55" fill="none" xmlns="http://www.w3.org/2000/svg">
<path d="M1.19994 28.6173C1.61349 28.7506 2.04509 28.822 2.46995 28.9053C5.45746 29.4978 8.39973 30.2735 11.3079 31.2182C17.0479 33.0814 20.6995 37.0123 22.4287 43.0658C23.3417 46.2615 24.0739 49.4906 24.6704 52.7624C24.8264 53.6238 24.9303 54.6304 26.1009 54.8279C27.1269 54.5185 27.2263 53.5524 27.3732 52.672C27.9336 49.3239 28.7314 46.04 29.6873 42.792C31.4432 36.8288 35.1402 33.0216 40.8121 31.2039C43.8448 30.2306 46.909 29.4501 50.0163 28.8244C50.8411 28.6578 51.9461 28.6007 51.9981 27.4323C52.0524 26.2045 50.9202 26.1854 50.1089 25.9737C49.2073 25.7381 48.2785 25.6191 47.3723 25.4002C43.3182 24.4269 39.2372 23.4989 35.6932 21.0433C31.8018 18.3472 30.1476 14.1329 29.0201 9.64036C28.3398 6.93007 27.8382 4.16977 27.2348 1.43555C27.0766 0.721671 26.8439 -0.0254667 25.9671 0.000666329C25.1987 0.0244614 24.975 0.724047 24.8281 1.35703C24.5637 2.49683 24.3829 3.66039 24.1434 4.80738C23.2236 9.21431 22.3061 13.6402 19.8339 17.4451C17.3323 21.2952 13.4951 22.9228 9.43394 24.1599C6.74928 24.9785 4.01036 25.5257 1.28035 26.1349C0.665683 26.2729 0.0329625 26.5299 0.00131779 27.339C-0.0325797 28.1671 0.593369 28.4216 1.19902 28.6168L1.19994 28.6173Z" fill="#F5A475"/>
</svg>
