<svg width="24" height="24" viewBox="0 0 24 24" fill="none" xmlns="http://www.w3.org/2000/svg">
<path d="M18.9997 10.5547C17.5934 10.5859 16.2809 10.1484 15.1559 9.33594V14.9297C15.1559 17.0547 13.8434 18.9297 11.8434 19.6797C9.87469 20.4297 7.62469 19.8672 6.24969 18.2734C4.84344 16.6484 4.59344 14.3672 5.59344 12.4922C6.59344 10.6484 8.65594 9.61719 10.7809 9.89844V12.7109C9.81219 12.3984 8.74969 12.7422 8.15594 13.5547C7.59344 14.3984 7.59344 15.4922 8.18719 16.3047C8.78094 17.1172 9.84344 17.4609 10.7809 17.1484C11.7497 16.8359 12.4059 15.9297 12.4059 14.9297V3.99219H15.1559C15.1559 4.24219 15.1559 4.46094 15.2184 4.71094C15.4059 5.74219 15.9997 6.64844 16.9059 7.21094C17.4997 7.61719 18.2497 7.83594 18.9997 7.83594V10.5547Z" stroke="#953F55"/>
</svg>
