<svg width="82" height="96" viewBox="0 0 82 96" fill="none" xmlns="http://www.w3.org/2000/svg">
<path d="M1.89222 50.0803C2.54434 50.3135 3.22495 50.4384 3.89493 50.5842C8.60599 51.6211 13.2457 52.9786 17.8317 54.6318C26.8832 57.8924 32.6415 64.7716 35.3683 75.3651C36.808 80.9576 37.9627 86.6086 38.9034 92.3343C39.1493 93.8417 39.3132 95.6031 41.1592 95.9487C42.777 95.4074 42.9338 93.7167 43.1654 92.1759C44.0492 86.3169 45.3072 80.57 46.8145 74.8859C49.5835 64.4504 55.4134 57.7878 64.3575 54.6068C69.1398 52.9036 73.972 51.5378 78.8718 50.4426C80.1725 50.1511 81.915 50.0512 81.997 48.0065C82.0826 45.8578 80.2972 45.8245 79.0179 45.4539C77.5961 45.0416 76.1314 44.8334 74.7024 44.4503C68.3094 42.7471 61.874 41.1231 56.2855 36.8257C50.149 32.1077 47.5405 24.7326 45.7624 16.8706C44.6898 12.1276 43.8986 7.2971 42.9472 2.51221C42.6978 1.26292 42.3307 -0.0445668 40.9481 0.00116608C39.7365 0.0428075 39.3837 1.26708 39.152 2.3748C38.735 4.36946 38.45 6.40569 38.0722 8.41292C36.6219 16.125 35.175 23.8704 31.2765 30.5289C27.3317 37.2665 21.2807 40.1149 14.8766 42.2798C10.6431 43.7123 6.32404 44.67 2.01902 45.7361C1.04973 45.9776 0.0519794 46.4273 0.00207805 47.8432C-0.0513756 49.2924 0.935697 49.7379 1.89076 50.0794L1.89222 50.0803Z" fill="white"/>
</svg>
